<svg xmlns="http://www.w3.org/2000/svg" xmlns:xlink="http://www.w3.org/1999/xlink" contentStyleType="text/css" height="1048.6px" preserveAspectRatio="none" style="width:1301px;height:1048px;background:#FFFFFF;" version="1.1" viewBox="0 0 1301 1048" width="1302px" zoomAndPan="magnify"><defs/><g><!--class post.network.blockchain.PoT--><g id="elem_pot.network.blockchain.PoT"><rect codeLine="2" fill="#F1F1F1" height="607.5443" id="pot.network.blockchain.PoT" rx="1.75" ry="1.75" style="stroke:#181818;stroke-width:0.3499999999999999;" width="784.4202" x="4.9" y="307.363"/><ellipse cx="330.1462" cy="318.563" fill="#ADD1B2" rx="7.7" ry="7.7" style="stroke:#181818;stroke-width:0.6999999999999998;"/><path d="M329.7744,323.4083 Q328.5494,323.4083 327.7509,322.8943 Q326.9634,322.3693 326.5697,321.4286 Q326.1869,320.4771 326.1869,319.2193 Q326.1869,317.7974 326.6462,316.7802 Q327.1056,315.763 328.0025,315.2161 Q328.8994,314.6693 330.2119,314.6693 Q330.8353,314.6693 331.3056,314.8005 Q331.7759,314.9208 332.2572,315.1614 L331.6884,316.5724 Q331.2509,316.3536 330.8681,316.2661 Q330.4962,316.1786 330.1572,316.1786 Q329.3369,316.1786 328.8447,316.5505 Q328.3525,316.9224 328.1447,317.5896 Q327.9369,318.2568 327.9369,319.1427 Q327.9369,320.5536 328.44,321.2318 Q328.9431,321.8989 330.0587,321.8989 Q330.4744,321.8989 330.9119,321.7896 Q331.3494,321.6802 331.929,321.4177 L331.929,322.9708 Q331.415,323.1896 330.8572,323.2989 Q330.3103,323.4083 329.7744,323.4083 Z " fill="#000000"/><text fill="#000000" font-family="sans-serif" font-size="9.8" lengthAdjust="spacing" textLength="127.9777" x="344.4962" y="322.3654">pot.network.blockchain.PoT</text><line style="stroke:#181818;stroke-width:0.3499999999999999;" x1="5.6" x2="788.6202" y1="329.763" y2="329.763"/><text fill="#000000" font-family="sans-serif" font-size="9.8" lengthAdjust="spacing" textLength="49.2644" x="9.1" y="343.0392">blockchain</text><text fill="#000000" font-family="sans-serif" font-size="9.8" lengthAdjust="spacing" textLength="28.2337" x="9.1" y="356.3867">nodes</text><text fill="#000000" font-family="sans-serif" font-size="9.8" lengthAdjust="spacing" textLength="44.0116" x="9.1" y="369.7342">self_node</text><text fill="#000000" font-family="sans-serif" font-size="9.8" lengthAdjust="spacing" textLength="61.4262" x="9.1" y="383.0818">tx_to_verified</text><line style="stroke:#181818;stroke-width:0.3499999999999999;" x1="5.6" x2="788.6202" y1="388.7532" y2="388.7532"/><text fill="#000000" font-family="sans-serif" font-size="9.8" lengthAdjust="spacing" textLength="359.0804" x="9.1" y="402.0293">_check_for_missing_transactions(self, diff, txs_verified, txs_verified_with_ident)</text><text fill="#000000" font-family="sans-serif" font-size="9.8" lengthAdjust="spacing" textLength="178.5259" x="9.1" y="415.3769">_check_validator_list(self, validator_list)</text><text fill="#000000" font-family="sans-serif" font-size="9.8" lengthAdjust="spacing" textLength="354.6019" x="9.1" y="428.7244">_get_node_by_identifier(self, identifier: uuid.UUID) -&gt; pot.network.node.Node</text><text fill="#000000" font-family="sans-serif" font-size="9.8" lengthAdjust="spacing" textLength="369.6448" x="9.1" y="442.0719">_get_node_from_request_addr(self, request_addr: str) -&gt; pot.network.node.Node</text><text fill="#000000" font-family="sans-serif" font-size="9.8" lengthAdjust="spacing" textLength="189.2177" x="9.1" y="455.4195">_register_new_block_validator(self, block)</text><text fill="#000000" font-family="sans-serif" font-size="9.8" lengthAdjust="spacing" textLength="179.2315" x="9.1" y="468.767">_send_to_all_nodes(self, func, args: list)</text><text fill="#000000" font-family="sans-serif" font-size="9.8" lengthAdjust="spacing" textLength="246.9493" x="9.1" y="482.1146">_validate_create_uuid(self, identifier: str) -&gt; uuid.UUID</text><text fill="#000000" font-family="sans-serif" font-size="9.8" lengthAdjust="spacing" textLength="182.3577" x="9.1" y="495.4621">_validate_if_i_am_validator(self) -&gt; None</text><text fill="#000000" font-family="sans-serif" font-size="9.8" lengthAdjust="spacing" textLength="297.5368" x="9.1" y="508.8097">_validate_request_dict_keys(self, data: dict, keys: list[str]) -&gt; None</text><text fill="#000000" font-family="sans-serif" font-size="9.8" lengthAdjust="spacing" textLength="296.8409" x="9.1" y="522.1572">_validate_request_from_validator(self, request_addr: str) -&gt; None</text><text fill="#000000" font-family="sans-serif" font-size="9.8" lengthAdjust="spacing" textLength="231.6516" x="9.1" y="535.5047">add_new_block(self, data: bytes, request_addr: str)</text><text fill="#000000" font-family="sans-serif" font-size="9.8" lengthAdjust="spacing" textLength="462.3526" x="9.1" y="548.8523">add_transaction_verification_result(self, uuid: uuid.UUID, node: pot.network.node.Node, result: bool)</text><text fill="#000000" font-family="sans-serif" font-size="9.8" lengthAdjust="spacing" textLength="209.7486" x="9.1" y="562.1998">block_new(self, data: bytes, request_addr: str)</text><text fill="#000000" font-family="sans-serif" font-size="9.8" lengthAdjust="spacing" textLength="761.3202" x="9.1" y="575.5474">change_node_trust(self, change_node: pot.network.node.Node, change_type: pot.network.trust.TrustChangeType, change: int | None = None, additional_data: str = '')</text><text fill="#000000" font-family="sans-serif" font-size="9.8" lengthAdjust="spacing" textLength="245.8615" x="9.1" y="588.8949">is_self_node_is_registered(self, genesis_ip: str) -&gt; bool</text><text fill="#000000" font-family="sans-serif" font-size="9.8" lengthAdjust="spacing" textLength="210.2778" x="9.1" y="602.2424">load(self, only_from_file: bool = False) -&gt; None</text><text fill="#000000" font-family="sans-serif" font-size="9.8" lengthAdjust="spacing" textLength="251.0652" x="9.1" y="615.59">load_from_validator_node(self, genesis_ip: str) -&gt; None</text><text fill="#000000" font-family="sans-serif" font-size="9.8" lengthAdjust="spacing" textLength="248.8112" x="9.1" y="628.9375">node_new_validators(self, remote_addr: str, data: dict)</text><text fill="#000000" font-family="sans-serif" font-size="9.8" lengthAdjust="spacing" textLength="524.5921" x="9.1" y="642.2851">node_register(self, identifier: uuid.UUID, node_ip: str, port: int, n_type: pot.network.node.NodeType) -&gt; dict | tuple</text><text fill="#000000" font-family="sans-serif" font-size="9.8" lengthAdjust="spacing" textLength="221.9986" x="9.1" y="655.6326">node_trust_change(self, identifier: str, data: dict)</text><text fill="#000000" font-family="sans-serif" font-size="9.8" lengthAdjust="spacing" textLength="195.0977" x="9.1" y="668.9802">node_update(self, data: dict) -&gt; dict | tuple</text><text fill="#000000" font-family="sans-serif" font-size="9.8" lengthAdjust="spacing" textLength="303.6323" x="9.1" y="682.3277">node_validator_agreement_done(self, remote_addr: str, data: dict)</text><text fill="#000000" font-family="sans-serif" font-size="9.8" lengthAdjust="spacing" textLength="278.1328" x="9.1" y="695.6752">node_validator_agreement_get(self, remote_addr: str) -&gt; dict</text><text fill="#000000" font-family="sans-serif" font-size="9.8" lengthAdjust="spacing" textLength="285.0222" x="9.1" y="709.0228">node_validator_agreement_list_set(self, uuids: list[uuid.UUID])</text><text fill="#000000" font-family="sans-serif" font-size="9.8" lengthAdjust="spacing" textLength="301.4077" x="9.1" y="722.3703">node_validator_agreement_start(self, remote_addr: str, data: dict)</text><text fill="#000000" font-family="sans-serif" font-size="9.8" lengthAdjust="spacing" textLength="300.0651" x="9.1" y="735.7179">node_validator_agreement_vote(self, remote_addr: str, data: dict)</text><text fill="#000000" font-family="sans-serif" font-size="9.8" lengthAdjust="spacing" textLength="285.1789" x="9.1" y="749.0654">populate_new_node(self, data: dict, request_addr: str) -&gt; None</text><text fill="#000000" font-family="sans-serif" font-size="9.8" lengthAdjust="spacing" textLength="776.0202" x="9.1" y="762.413">send_multiple_trust_change(self, nodes: list[pot.network.node.Node | uuid.UUID], change_type: pot.network.trust.TrustChangeType, change: int, additional_data: str = '')</text><text fill="#000000" font-family="sans-serif" font-size="9.8" lengthAdjust="spacing" textLength="480.9135" x="9.1" y="775.7605">send_new_transaction_verified(self, identifier: uuid.UUID, tx_verified: pot.network.transaction.TxVerified)</text><text fill="#000000" font-family="sans-serif" font-size="9.8" lengthAdjust="spacing" textLength="368.5374" x="9.1" y="789.108">send_transaction_populate(self, uuid: uuid.UUID, tx: pot.network.transaction.Tx)</text><text fill="#000000" font-family="sans-serif" font-size="9.8" lengthAdjust="spacing" textLength="435.6182" x="9.1" y="802.4556">send_transaction_verification(self, uuid: uuid.UUID, verified: bool, message: str | None = None)</text><text fill="#000000" font-family="sans-serif" font-size="9.8" lengthAdjust="spacing" textLength="111.5628" x="9.1" y="815.8031">send_validators_list(self)</text><text fill="#000000" font-family="sans-serif" font-size="9.8" lengthAdjust="spacing" textLength="196.4795" x="9.1" y="829.1507">transaction_get(self, identifier: str) -&gt; bytes</text><text fill="#000000" font-family="sans-serif" font-size="9.8" lengthAdjust="spacing" textLength="268.0682" x="9.1" y="842.4982">transaction_new(self, data: bytes, request_addr: str) -&gt; dict</text><text fill="#000000" font-family="sans-serif" font-size="9.8" lengthAdjust="spacing" textLength="278.3875" x="9.1" y="855.8457">transaction_populate(self, data: bytes, identifier: str) -&gt; None</text><text fill="#000000" font-family="sans-serif" font-size="9.8" lengthAdjust="spacing" textLength="392.0279" x="9.1" y="869.1933">transaction_populate_verify_result(self, verified: bool, identifier: str, remote_addr: str)</text><text fill="#000000" font-family="sans-serif" font-size="9.8" lengthAdjust="spacing" textLength="328.1027" x="9.1" y="882.5408">transaction_verified_new(self, identifier: str, data: str, request_addr: str)</text><text fill="#000000" font-family="sans-serif" font-size="9.8" lengthAdjust="spacing" textLength="263.7562" x="9.1" y="895.8884">update_from_validator_node(self, genesis_ip: str) -&gt; None</text><text fill="#000000" font-family="sans-serif" font-size="9.8" lengthAdjust="spacing" textLength="139.7965" x="9.1" y="909.2359">validator_agreement_end(self)</text></g><!--class post.network.manager.Manager--><g id="elem_pot.network.manager.Manager"><rect codeLine="47" fill="#F1F1F1" height="73.6426" id="pot.network.manager.Manager" rx="1.75" ry="1.75" style="stroke:#181818;stroke-width:0.3499999999999999;" width="167.1651" x="972.93" y="970.207"/><ellipse cx="983.43" cy="981.407" fill="#ADD1B2" rx="7.7" ry="7.7" style="stroke:#181818;stroke-width:0.6999999999999998;"/><path d="M983.0581,986.2523 Q981.8331,986.2523 981.0347,985.7382 Q980.2472,985.2132 979.8534,984.2726 Q979.4706,983.3211 979.4706,982.0632 Q979.4706,980.6414 979.93,979.6242 Q980.3894,978.607 981.2862,978.0601 Q982.1831,977.5132 983.4956,977.5132 Q984.1191,977.5132 984.5894,977.6445 Q985.0597,977.7648 985.5409,978.0054 L984.9722,979.4164 Q984.5347,979.1976 984.1519,979.1101 Q983.78,979.0226 983.4409,979.0226 Q982.6206,979.0226 982.1284,979.3945 Q981.6362,979.7664 981.4284,980.4336 Q981.2206,981.1007 981.2206,981.9867 Q981.2206,983.3976 981.7237,984.0757 Q982.2269,984.7429 983.3425,984.7429 Q983.7581,984.7429 984.1956,984.6336 Q984.6331,984.5242 985.2128,984.2617 L985.2128,985.8148 Q984.6987,986.0336 984.1409,986.1429 Q983.5941,986.2523 983.0581,986.2523 Z " fill="#000000"/><text fill="#000000" font-family="sans-serif" font-size="9.8" lengthAdjust="spacing" textLength="144.7651" x="993.23" y="985.2094">pot.network.manager.Manager</text><line style="stroke:#181818;stroke-width:0.3499999999999999;" x1="973.63" x2="1139.3951" y1="992.607" y2="992.607"/><line style="stroke:#181818;stroke-width:0.3499999999999999;" x1="973.63" x2="1139.3951" y1="998.207" y2="998.207"/><text fill="#000000" font-family="sans-serif" font-size="9.8" lengthAdjust="spacing" textLength="76.7043" x="977.13" y="1011.4832">get_storage(self)</text><text fill="#000000" font-family="sans-serif" font-size="9.8" lengthAdjust="spacing" textLength="129.1243" x="977.13" y="1024.8307">has_empty_files(self) -&gt; bool</text><text fill="#000000" font-family="sans-serif" font-size="9.8" lengthAdjust="spacing" textLength="135.1317" x="977.13" y="1038.1782">has_storage_files(self) -&gt; bool</text></g><!--class post.network.storage.Storage--><g id="elem_pot.network.storage.Storage"><rect codeLine="52" fill="#F1F1F1" height="207.118" id="pot.network.storage.Storage" rx="1.75" ry="1.75" style="stroke:#181818;stroke-width:0.3499999999999999;" width="227.7035" x="1070.055" y="507.57"/><ellipse cx="1114.6252" cy="518.77" fill="#ADD1B2" rx="7.7" ry="7.7" style="stroke:#181818;stroke-width:0.6999999999999998;"/><path d="M1114.2533,523.6153 Q1113.0283,523.6153 1112.2299,523.1012 Q1111.4424,522.5762 1111.0486,521.6356 Q1110.6658,520.6841 1110.6658,519.4262 Q1110.6658,518.0044 1111.1252,516.9872 Q1111.5846,515.97 1112.4815,515.4231 Q1113.3783,514.8762 1114.6908,514.8762 Q1115.3143,514.8762 1115.7846,515.0075 Q1116.2549,515.1278 1116.7361,515.3684 L1116.1674,516.7794 Q1115.7299,516.5606 1115.3471,516.4731 Q1114.9752,516.3856 1114.6361,516.3856 Q1113.8158,516.3856 1113.3236,516.7575 Q1112.8315,517.1294 1112.6236,517.7966 Q1112.4158,518.4637 1112.4158,519.3497 Q1112.4158,520.7606 1112.919,521.4387 Q1113.4221,522.1059 1114.5377,522.1059 Q1114.9533,522.1059 1115.3908,521.9966 Q1115.8283,521.8872 1116.408,521.6247 L1116.408,523.1778 Q1115.894,523.3966 1115.3361,523.5059 Q1114.7893,523.6153 1114.2533,523.6153 Z " fill="#000000"/><text fill="#000000" font-family="sans-serif" font-size="9.8" lengthAdjust="spacing" textLength="132.6131" x="1128.9752" y="522.5724">pot.network.storage.Storage</text><line style="stroke:#181818;stroke-width:0.3499999999999999;" x1="1070.755" x2="1297.0585" y1="529.97" y2="529.97"/><text fill="#000000" font-family="sans-serif" font-size="9.8" lengthAdjust="spacing" textLength="44.9034" x="1074.255" y="543.2462">PATH : str</text><text fill="#000000" font-family="sans-serif" font-size="9.8" lengthAdjust="spacing" textLength="41.1207" x="1074.255" y="556.5937">path : str</text><line style="stroke:#181818;stroke-width:0.3499999999999999;" x1="1070.755" x2="1297.0585" y1="562.2651" y2="562.2651"/><text fill="#000000" font-family="sans-serif" font-size="9.8" lengthAdjust="spacing" textLength="108.7012" x="1074.255" y="575.5412">_is_set_lock(self) -&gt; bool</text><text fill="#000000" font-family="sans-serif" font-size="9.8" lengthAdjust="spacing" textLength="101.6746" x="1074.255" y="588.8888">_set_lock(self) -&gt; None</text><text fill="#000000" font-family="sans-serif" font-size="9.8" lengthAdjust="spacing" textLength="124.8809" x="1074.255" y="602.2363">_wait_for_lock(self) -&gt; None</text><text fill="#000000" font-family="sans-serif" font-size="9.8" lengthAdjust="spacing" textLength="84.7795" x="1074.255" y="615.5839">get_size(self) -&gt; int</text><text fill="#000000" font-family="sans-serif" font-size="9.8" lengthAdjust="spacing" textLength="95.5202" x="1074.255" y="628.9314">has_files(self) -&gt; bool</text><text fill="#000000" font-family="sans-serif" font-size="9.8" lengthAdjust="spacing" textLength="136.3664" x="1074.255" y="642.2789">invalidate_cache(self) -&gt; None</text><text fill="#000000" font-family="sans-serif" font-size="9.8" lengthAdjust="spacing" textLength="97.098" x="1074.255" y="655.6265">is_empty(self) -&gt; bool</text><text fill="#000000" font-family="sans-serif" font-size="9.8" lengthAdjust="spacing" textLength="84.4169" x="1074.255" y="668.974">is_up_to_date(self)</text><text fill="#000000" font-family="sans-serif" font-size="9.8" lengthAdjust="spacing" textLength="91.3258" x="1074.255" y="682.3216">unlock(self) -&gt; None</text><text fill="#000000" font-family="sans-serif" font-size="9.8" lengthAdjust="spacing" textLength="85.5145" x="1074.255" y="695.6691">update_cache(self)</text><text fill="#000000" font-family="sans-serif" font-size="9.8" lengthAdjust="spacing" textLength="219.3035" x="1074.255" y="709.0167">wait_for_set_lock(self, timeout: int = 10) -&gt; None</text></g><!--class post.network.service.Blockchain--><g id="elem_pot.network.service.Blockchain"><rect codeLine="67" fill="#F1F1F1" height="247.1607" id="pot.network.service.Blockchain" rx="1.75" ry="1.75" style="stroke:#181818;stroke-width:0.3499999999999999;" width="525.2306" x="229.698" y="4.9"/><ellipse cx="417.828" cy="16.1" fill="#ADD1B2" rx="7.7" ry="7.7" style="stroke:#181818;stroke-width:0.6999999999999998;"/><path d="M417.4561,20.9453 Q416.2311,20.9453 415.4327,20.4312 Q414.6452,19.9062 414.2514,18.9656 Q413.8686,18.0141 413.8686,16.7562 Q413.8686,15.3344 414.328,14.3172 Q414.7874,13.3 415.6842,12.7531 Q416.5811,12.2062 417.8936,12.2062 Q418.5171,12.2062 418.9874,12.3375 Q419.4577,12.4578 419.9389,12.6984 L419.3702,14.1094 Q418.9327,13.8906 418.5499,13.8031 Q418.178,13.7156 417.8389,13.7156 Q417.0186,13.7156 416.5264,14.0875 Q416.0342,14.4594 415.8264,15.1266 Q415.6186,15.7937 415.6186,16.6797 Q415.6186,18.0906 416.1217,18.7687 Q416.6249,19.4359 417.7405,19.4359 Q418.1561,19.4359 418.5936,19.3266 Q419.0311,19.2172 419.6108,18.9547 L419.6108,20.5078 Q419.0967,20.7266 418.5389,20.8359 Q417.9921,20.9453 417.4561,20.9453 Z " fill="#000000"/><text fill="#000000" font-family="sans-serif" font-size="9.8" lengthAdjust="spacing" textLength="143.0206" x="432.178" y="19.9024">pot.network.service.Blockchain</text><line style="stroke:#181818;stroke-width:0.3499999999999999;" x1="230.398" x2="754.2286" y1="27.3" y2="27.3"/><text fill="#000000" font-family="sans-serif" font-size="9.8" lengthAdjust="spacing" textLength="52.3024" x="233.898" y="40.5762">txs_verified</text><line style="stroke:#181818;stroke-width:0.3499999999999999;" x1="230.398" x2="754.2286" y1="46.2475" y2="46.2475"/><text fill="#000000" font-family="sans-serif" font-size="9.8" lengthAdjust="spacing" textLength="223.7331" x="233.898" y="59.5237">add(self, block: pot.network.block.Block) -&gt; None</text><text fill="#000000" font-family="sans-serif" font-size="9.8" lengthAdjust="spacing" textLength="416.1947" x="233.898" y="72.8712">add_new_transaction(self, uuid: uuid.UUID, tx: pot.network.transaction.TxVerified) -&gt; None</text><text fill="#000000" font-family="sans-serif" font-size="9.8" lengthAdjust="spacing" textLength="176.7423" x="233.898" y="86.2188">all(self) -&gt; list[pot.network.block.Block]</text><text fill="#000000" font-family="sans-serif" font-size="9.8" lengthAdjust="spacing" textLength="136.4743" x="233.898" y="99.5663">blocks_to_dict(self) -&gt; list[dict]</text><text fill="#000000" font-family="sans-serif" font-size="9.8" lengthAdjust="spacing" textLength="403.7878" x="233.898" y="112.9139">create_block(self, self_node: pot.network.node.SelfNodeInfo) -&gt; pot.network.block.Block</text><text fill="#000000" font-family="sans-serif" font-size="9.8" lengthAdjust="spacing" textLength="340.6859" x="233.898" y="126.2614">create_first_block(self, self_node: pot.network.node.SelfNodeInfo) -&gt; None</text><text fill="#000000" font-family="sans-serif" font-size="9.8" lengthAdjust="spacing" textLength="516.8306" x="233.898" y="139.6089">find_last_transactions_values_for_node(self, node: pot.network.node.Node, t_type: str | None = None) -&gt; list[dict]</text><text fill="#000000" font-family="sans-serif" font-size="9.8" lengthAdjust="spacing" textLength="400.9459" x="233.898" y="152.9565">find_tx_verified(self, identifier: uuid.UUID) -&gt; pot.network.transaction.TxVerified | None</text><text fill="#000000" font-family="sans-serif" font-size="9.8" lengthAdjust="spacing" textLength="210.9246" x="233.898" y="166.304">get_last_block(self) -&gt; pot.network.block.Block</text><text fill="#000000" font-family="sans-serif" font-size="9.8" lengthAdjust="spacing" textLength="147.9304" x="233.898" y="179.6516">get_last_prev_hash(self) -&gt; bytes</text><text fill="#000000" font-family="sans-serif" font-size="9.8" lengthAdjust="spacing" textLength="76.7043" x="233.898" y="192.9991">get_storage(self)</text><text fill="#000000" font-family="sans-serif" font-size="9.8" lengthAdjust="spacing" textLength="129.1243" x="233.898" y="206.3467">has_empty_files(self) -&gt; bool</text><text fill="#000000" font-family="sans-serif" font-size="9.8" lengthAdjust="spacing" textLength="135.1317" x="233.898" y="219.6942">has_storage_files(self) -&gt; bool</text><text fill="#000000" font-family="sans-serif" font-size="9.8" lengthAdjust="spacing" textLength="177.9575" x="233.898" y="233.0417">load_from_bytes(self, b: bytes) -&gt; None</text><text fill="#000000" font-family="sans-serif" font-size="9.8" lengthAdjust="spacing" textLength="94.0894" x="233.898" y="246.3893">refresh(self) -&gt; None</text></g><!--class post.network.manager.BlockchainManager--><g id="elem_pot.network.manager.BlockchainManager"><rect codeLine="85" fill="#F1F1F1" height="180.423" id="pot.network.manager.BlockchainManager" rx="1.75" ry="1.75" style="stroke:#181818;stroke-width:0.3499999999999999;" width="232.1331" x="813.743" y="520.919"/><ellipse cx="831.1553" cy="532.119" fill="#ADD1B2" rx="7.7" ry="7.7" style="stroke:#181818;stroke-width:0.6999999999999998;"/><path d="M830.7834,536.9643 Q829.5584,536.9643 828.76,536.4503 Q827.9725,535.9252 827.5787,534.9846 Q827.1959,534.0331 827.1959,532.7752 Q827.1959,531.3534 827.6553,530.3362 Q828.1147,529.319 829.0116,528.7721 Q829.9084,528.2253 831.2209,528.2253 Q831.8444,528.2253 832.3147,528.3565 Q832.785,528.4768 833.2662,528.7174 L832.6975,530.1284 Q832.26,529.9096 831.8772,529.8221 Q831.5053,529.7346 831.1662,529.7346 Q830.3459,529.7346 829.8537,530.1065 Q829.3616,530.4784 829.1537,531.1456 Q828.9459,531.8127 828.9459,532.6987 Q828.9459,534.1096 829.4491,534.7878 Q829.9522,535.4549 831.0678,535.4549 Q831.4834,535.4549 831.9209,535.3456 Q832.3584,535.2362 832.9381,534.9737 L832.9381,536.5268 Q832.4241,536.7456 831.8662,536.8549 Q831.3194,536.9643 830.7834,536.9643 Z " fill="#000000"/><text fill="#000000" font-family="sans-serif" font-size="9.8" lengthAdjust="spacing" textLength="194.3724" x="842.4914" y="535.9214">pot.network.manager.BlockchainManager</text><line style="stroke:#181818;stroke-width:0.3499999999999999;" x1="814.443" x2="1045.1761" y1="543.319" y2="543.319"/><text fill="#000000" font-family="sans-serif" font-size="9.8" lengthAdjust="spacing" textLength="81.3397" x="817.943" y="556.5952">blocks : list[Block]</text><line style="stroke:#181818;stroke-width:0.3499999999999999;" x1="814.443" x2="1045.1761" y1="562.2665" y2="562.2665"/><text fill="#000000" font-family="sans-serif" font-size="9.8" lengthAdjust="spacing" textLength="223.7331" x="817.943" y="575.5427">add(self, block: pot.network.block.Block) -&gt; None</text><text fill="#000000" font-family="sans-serif" font-size="9.8" lengthAdjust="spacing" textLength="176.7423" x="817.943" y="588.8902">all(self) -&gt; list[pot.network.block.Block]</text><text fill="#000000" font-family="sans-serif" font-size="9.8" lengthAdjust="spacing" textLength="136.4743" x="817.943" y="602.2378">blocks_to_dict(self) -&gt; list[dict]</text><text fill="#000000" font-family="sans-serif" font-size="9.8" lengthAdjust="spacing" textLength="210.9246" x="817.943" y="615.5853">get_last_block(self) -&gt; pot.network.block.Block</text><text fill="#000000" font-family="sans-serif" font-size="9.8" lengthAdjust="spacing" textLength="147.9304" x="817.943" y="628.9329">get_last_prev_hash(self) -&gt; bytes</text><text fill="#000000" font-family="sans-serif" font-size="9.8" lengthAdjust="spacing" textLength="76.7043" x="817.943" y="642.2804">get_storage(self)</text><text fill="#000000" font-family="sans-serif" font-size="9.8" lengthAdjust="spacing" textLength="129.1243" x="817.943" y="655.6279">has_empty_files(self) -&gt; bool</text><text fill="#000000" font-family="sans-serif" font-size="9.8" lengthAdjust="spacing" textLength="135.1317" x="817.943" y="668.9755">has_storage_files(self) -&gt; bool</text><text fill="#000000" font-family="sans-serif" font-size="9.8" lengthAdjust="spacing" textLength="177.9575" x="817.943" y="682.323">load_from_bytes(self, b: bytes) -&gt; None</text><text fill="#000000" font-family="sans-serif" font-size="9.8" lengthAdjust="spacing" textLength="94.0894" x="817.943" y="695.6706">refresh(self) -&gt; None</text></g><!--class post.network.storage.BlocksStorage--><g id="elem_pot.network.storage.BlocksStorage"><rect codeLine="98" fill="#F1F1F1" height="247.1607" id="pot.network.storage.BlocksStorage" rx="1.75" ry="1.75" style="stroke:#181818;stroke-width:0.3499999999999999;" width="334.2193" x="890.099" y="4.9"/><ellipse cx="973.1978" cy="16.1" fill="#ADD1B2" rx="7.7" ry="7.7" style="stroke:#181818;stroke-width:0.6999999999999998;"/><path d="M972.8259,20.9453 Q971.6009,20.9453 970.8025,20.4312 Q970.015,19.9062 969.6212,18.9656 Q969.2384,18.0141 969.2384,16.7562 Q969.2384,15.3344 969.6978,14.3172 Q970.1571,13.3 971.054,12.7531 Q971.9509,12.2062 973.2634,12.2062 Q973.8868,12.2062 974.3571,12.3375 Q974.8275,12.4578 975.3087,12.6984 L974.74,14.1094 Q974.3025,13.8906 973.9196,13.8031 Q973.5478,13.7156 973.2087,13.7156 Q972.3884,13.7156 971.8962,14.0875 Q971.404,14.4594 971.1962,15.1266 Q970.9884,15.7937 970.9884,16.6797 Q970.9884,18.0906 971.4915,18.7687 Q971.9946,19.4359 973.1103,19.4359 Q973.5259,19.4359 973.9634,19.3266 Q974.4009,19.2172 974.9806,18.9547 L974.9806,20.5078 Q974.4665,20.7266 973.9087,20.8359 Q973.3618,20.9453 972.8259,20.9453 Z " fill="#000000"/><text fill="#000000" font-family="sans-serif" font-size="9.8" lengthAdjust="spacing" textLength="162.0718" x="987.5478" y="19.9024">pot.network.storage.BlocksStorage</text><line style="stroke:#181818;stroke-width:0.3499999999999999;" x1="890.799" x2="1223.6183" y1="27.3" y2="27.3"/><text fill="#000000" font-family="sans-serif" font-size="9.8" lengthAdjust="spacing" textLength="44.9034" x="894.299" y="40.5762">PATH : str</text><line style="stroke:#181818;stroke-width:0.3499999999999999;" x1="890.799" x2="1223.6183" y1="46.2475" y2="46.2475"/><text fill="#000000" font-family="sans-serif" font-size="9.8" lengthAdjust="spacing" textLength="108.7012" x="894.299" y="59.5237">_is_set_lock(self) -&gt; bool</text><text fill="#000000" font-family="sans-serif" font-size="9.8" lengthAdjust="spacing" textLength="101.6746" x="894.299" y="72.8712">_set_lock(self) -&gt; None</text><text fill="#000000" font-family="sans-serif" font-size="9.8" lengthAdjust="spacing" textLength="124.8809" x="894.299" y="86.2188">_wait_for_lock(self) -&gt; None</text><text fill="#000000" font-family="sans-serif" font-size="9.8" lengthAdjust="spacing" textLength="219.0683" x="894.299" y="99.5663">dump(self, blocks: list[pot.network.block.Block])</text><text fill="#000000" font-family="sans-serif" font-size="9.8" lengthAdjust="spacing" textLength="84.7795" x="894.299" y="112.9139">get_size(self) -&gt; int</text><text fill="#000000" font-family="sans-serif" font-size="9.8" lengthAdjust="spacing" textLength="95.5202" x="894.299" y="126.2614">has_files(self) -&gt; bool</text><text fill="#000000" font-family="sans-serif" font-size="9.8" lengthAdjust="spacing" textLength="136.3664" x="894.299" y="139.6089">invalidate_cache(self) -&gt; None</text><text fill="#000000" font-family="sans-serif" font-size="9.8" lengthAdjust="spacing" textLength="97.098" x="894.299" y="152.9565">is_empty(self) -&gt; bool</text><text fill="#000000" font-family="sans-serif" font-size="9.8" lengthAdjust="spacing" textLength="84.4169" x="894.299" y="166.304">is_up_to_date(self)</text><text fill="#000000" font-family="sans-serif" font-size="9.8" lengthAdjust="spacing" textLength="186.1699" x="894.299" y="179.6516">load(self) -&gt; list[pot.network.block.Block]</text><text fill="#000000" font-family="sans-serif" font-size="9.8" lengthAdjust="spacing" textLength="325.8193" x="894.299" y="192.9991">load_from_file(self, f: &lt;class 'BinaryIO'&gt;) -&gt; list[pot.network.block.Block]</text><text fill="#000000" font-family="sans-serif" font-size="9.8" lengthAdjust="spacing" textLength="91.3258" x="894.299" y="206.3467">unlock(self) -&gt; None</text><text fill="#000000" font-family="sans-serif" font-size="9.8" lengthAdjust="spacing" textLength="224.4681" x="894.299" y="219.6942">update(self, blocks: list[pot.network.block.Block])</text><text fill="#000000" font-family="sans-serif" font-size="9.8" lengthAdjust="spacing" textLength="85.5145" x="894.299" y="233.0417">update_cache(self)</text><text fill="#000000" font-family="sans-serif" font-size="9.8" lengthAdjust="spacing" textLength="219.3035" x="894.299" y="246.3893">wait_for_set_lock(self, timeout: int = 10) -&gt; None</text></g><!--link post.network.storage.BlocksStorage to post.network.storage.Storage--><g id="link_pot.network.storage.BlocksStorage_pot.network.storage.Storage"><path codeLine="116" d="M1089.592,252.175 C1110.375,331.128 1133.8503,420.3034 1153.5343,495.0494 " fill="none" id="pot.network.storage.BlocksStorage-to-pot.network.storage.Storage" style="stroke:#181818;stroke-width:0.6999999999999998;"/><polygon fill="none" points="1156.743,507.234,1157.5958,493.9798,1149.4727,496.119,1156.743,507.234" style="stroke:#181818;stroke-width:0.6999999999999998;"/></g><!--link post.network.manager.BlockchainManager to post.network.manager.Manager--><g id="link_pot.network.manager.BlockchainManager_pot.network.manager.Manager"><path codeLine="117" d="M958.643,701.596 C985.88,786.401 1021.5217,897.3803 1040.9537,957.8953 " fill="none" id="pot.network.manager.BlockchainManager-to-pot.network.manager.Manager" style="stroke:#181818;stroke-width:0.6999999999999998;"/><polygon fill="none" points="1044.806,969.892,1044.9526,956.6112,1036.9549,959.1794,1044.806,969.892" style="stroke:#181818;stroke-width:0.6999999999999998;"/></g><!--link post.network.storage.BlocksStorage to post.network.manager.BlockchainManager--><g id="link_pot.network.storage.BlocksStorage_pot.network.manager.BlockchainManager"><path codeLine="118" d="M1024.646,252.175 C1002.456,336 975.7309,436.9678 955.6969,512.6378 " fill="none" id="pot.network.storage.BlocksStorage-to-pot.network.manager.BlockchainManager" style="stroke:#181818;stroke-width:0.6999999999999998;"/><polygon fill="#181818" points="953.547,520.758,957.3287,517.4145,955.6969,512.6378,951.9152,515.9813,953.547,520.758" style="stroke:#181818;stroke-width:0.6999999999999998;"/><text fill="#000000" font-family="sans-serif" font-size="9.1" lengthAdjust="spacing" textLength="36.7822" x="1016.701" y="283.4909">_storage</text></g><!--link post.network.storage.Storage to post.network.manager.Manager--><g id="link_pot.network.storage.Storage_pot.network.manager.Manager"><path codeLine="119" d="M1150.604,714.966 C1123.472,798.973 1089.3176,904.7435 1070.7956,962.0945 " fill="none" id="pot.network.storage.Storage-to-pot.network.manager.Manager" style="stroke:#181818;stroke-width:0.6999999999999998;"/><polygon fill="#181818" points="1068.214,970.088,1072.1693,966.9518,1070.7956,962.0945,1066.8403,965.2307,1068.214,970.088" style="stroke:#181818;stroke-width:0.6999999999999998;"/><text fill="#000000" font-family="sans-serif" font-size="9.1" lengthAdjust="spacing" textLength="36.7822" x="1078.567" y="946.3349">_storage</text></g><!--link post.network.service.Blockchain to post.network.manager.BlockchainManager--><g id="link_pot.network.service.Blockchain_pot.network.manager.BlockchainManager"><path codeLine="120" d="M741.594,252.357 C763.476,269.003 784,287.336 801.71,307.363 C855.729,368.445 885.7832,443.5553 904.9422,508.7463 " fill="none" id="pot.network.service.Blockchain-to-pot.network.manager.BlockchainManager" style="stroke:#181818;stroke-width:0.6999999999999998;"/><polygon fill="none" points="908.495,520.835,908.9718,507.562,900.9127,509.9305,908.495,520.835" style="stroke:#181818;stroke-width:0.6999999999999998;"/></g><!--link post.network.service.Blockchain to post.network.blockchain.PoT--><g id="link_pot.network.service.Blockchain_pot.network.blockchain.PoT"><path codeLine="121" d="M467.978,252.175 C464.534,269.584 462.5111,279.8379 458.7381,298.8989 " fill="none" id="pot.network.service.Blockchain-to-pot.network.blockchain.PoT" style="stroke:#181818;stroke-width:0.6999999999999998;"/><polygon fill="#181818" points="457.107,307.139,460.6692,303.5626,458.7381,298.8989,455.1758,302.4752,457.107,307.139" style="stroke:#181818;stroke-width:0.6999999999999998;"/><text fill="#000000" font-family="sans-serif" font-size="9.1" lengthAdjust="spacing" textLength="45.7457" x="462.217" y="283.4909">blockchain</text></g><!--SRC=[vLXBRzms4BxxLn2vk0xMY_QwQ0qqBOhwq3H0d5u2Ww0bQfUmHAaaPNlRzBztXk9B4bUxTXAWG2zUBybvy9kPRuQhkI6IDLnthE3lUSSKCwqYifNyhAYPrkHLrvgrvEQnLVVhkxejxeiT4tBzhhrvHPWcXxV9tsU4n2Nu8jkIQ_ZKlAueVe7_pHCrBNtWIbI2bx10YnqlxcdLAje8hONSKgEOrAmmefNw6nHUaL9KyDSywI0w_aOVXTbHKN9fBgBI1rQB4cz8Qw6DKpLUjAUtt5Z_wDr-q84wbJiV5pQaxqMv_l3X-kSBSdarmWB5rs-7EqPzbMeRglYVFTU6ihBqEjEb3T56BUjJV0kkSaKbVwGMudWrfz6ksijeBal4cDMrTS93MFMoM16cjdf3misT6auBnV43BvYvj_Smt7yaAoegA6icFbc1jvXPwLb_yr8KXjxpVGWmCsn3S7L5S7dmyICOlbrMP26Uef77r-c0nGZaoFpTtd2TatPIIMAwp2kO_QAuxckVO0XIaYehMmURV7JH68g2xRQjBtm5eNydUmRb9hTyI3YZ-f3eoVf1w-wCsNUJCrRH-WR__cJFtC0HVtv3X3JaamMK_60_LWYGG31OJGUVmJtOF3z77uMcWGKeVF4PpNssRRda6ZP45-E5a81itJ9_gfNrVeXu9Me-W0OsVc6rvcc8KMII6TRqWZ4dQHt4x0Y2EkHKqqBU1UZJdBtmalvUIzmn98GtlWBObR68maOc4Y5Q607hAbe4z4tVrS5b6oywX2TVm5b_-mwBQLQ31yr4EDbMSTw01Le2Si_1AAS36FE0Yk3AaZXo1IHOMe6UGGBijuiEQCEK-TnRFBJcL2Iwjkjhv37CjIGrKnvSP35BymrGXu3mvC9lkT-1aCqdY6q4vxEeu4ZnMrVnddF-vELofS2uu0zEdGggrZTFVxWpmLfgoKDzY9xDqvBghCgK_0-fZNuZIwq8J5sQ8M08pOWxWud8EN5WmStKTAoKN8EsVM8YSN8lIIfj0R-HafmFBa5pAWRWzkD-EGLgnbipIfXe3qDWlEa1xdFgCarq8CANzOmS5K0uNVZ-oKtM3PEG2shzs_0v6wqd-tQsngbIWnNcIXpTtZ5DUTEPlMs8EWvUhdVYlfF9diWwvmJMxuVFcNEJVUlSknzlVYKM6IGtPdRX2xMz7pZQJrkfVvaTF-azCc7iio2xRS4GV_6u0JpaBfo7GiWux39u7ynK2WVbN593dyIHElHAcp4owvXBfCG4B8QxZAuBr2CQtlP3zmSo-ExRg2aV6QuUHC7NRy8pQnwSsH4Rd_InD4opwSDXCt_N3GfoStDIUY-ZrC3MgVAwZb3EUbRYqQsVaRMD2D3LH0wNy91xqQHJVXX1CnFMUzZ3hdWjgtRs6aliHysLKC0YBzRlBbu987w8j1azUv63WAHipYGaj3ZB6zUxv_rbXeqrclJMPprryy5q9brfsWlTZGlaCA11ebFyWK89xv8QT1tjQx1V-b2mTdnDkFwMnadn2hhMRbBlY-GUI_0OpSzEnXzJD74pNCZ-5zNk5o-l_tsKVHUqrzF7UkNerBnZVfqcMVPDbwPAxZcGnlxYFz5Omtl_f6IDiKNl_6zT6_Bz4BBpDq8ojR_-_Vpg97MBNVsvM7wvMU1uIbrUVhfQcjBEJkETcPh997gI9wzF9BaDyOLxjZHV7b9uJCry4ZfukvblnpMzNlejV9Fy4lul]--></g></svg>