<svg xmlns="http://www.w3.org/2000/svg" xmlns:xlink="http://www.w3.org/1999/xlink" contentStyleType="text/css" height="1307px" preserveAspectRatio="none" style="width:1860px;height:1307px;background:#FFFFFF;" version="1.1" viewBox="0 0 1860 1307" width="1860px" zoomAndPan="magnify"><defs/><g><!--class pot.network.blockchain.PoT--><g id="elem_pot.network.blockchain.PoT"><rect codeLine="2" fill="#F1F1F1" height="677.2413" id="pot.network.blockchain.PoT" rx="2.5" ry="2.5" style="stroke:#181818;stroke-width:0.5;" width="1120.6002" x="7" y="439.08"/><ellipse cx="471.6375" cy="455.08" fill="#ADD1B2" rx="11" ry="11" style="stroke:#181818;stroke-width:1.0;"/><path d="M471.1062,462.0019 Q469.3562,462.0019 468.2156,461.2675 Q467.0906,460.5175 466.5281,459.1737 Q465.9812,457.8144 465.9812,456.0175 Q465.9812,453.9862 466.6375,452.5331 Q467.2937,451.08 468.575,450.2987 Q469.8562,449.5175 471.7312,449.5175 Q472.6218,449.5175 473.2937,449.705 Q473.9656,449.8769 474.6531,450.2206 L473.8406,452.2362 Q473.2156,451.9237 472.6687,451.7987 Q472.1375,451.6737 471.6531,451.6737 Q470.4812,451.6737 469.7781,452.205 Q469.075,452.7362 468.7781,453.6894 Q468.4812,454.6425 468.4812,455.9081 Q468.4812,457.9237 469.2,458.8925 Q469.9187,459.8456 471.5125,459.8456 Q472.1062,459.8456 472.7312,459.6894 Q473.3562,459.5331 474.1843,459.1581 L474.1843,461.3769 Q473.45,461.6894 472.6531,461.8456 Q471.8718,462.0019 471.1062,462.0019 Z " fill="#000000"/><text fill="#000000" font-family="sans-serif" font-size="14" lengthAdjust="spacing" textLength="182.8253" x="492.1375" y="460.512">pot.network.blockchain.PoT</text><line style="stroke:#181818;stroke-width:0.5;" x1="8" x2="1126.6002" y1="471.08" y2="471.08"/><text fill="#000000" font-family="sans-serif" font-size="14" lengthAdjust="spacing" textLength="70.3777" x="13" y="490.0459">blockchain</text><text fill="#000000" font-family="sans-serif" font-size="14" lengthAdjust="spacing" textLength="40.3338" x="13" y="509.1139">nodes</text><text fill="#000000" font-family="sans-serif" font-size="14" lengthAdjust="spacing" textLength="62.8737" x="13" y="528.1818">self_node</text><text fill="#000000" font-family="sans-serif" font-size="14" lengthAdjust="spacing" textLength="87.7517" x="13" y="547.2497">tx_to_verified</text><line style="stroke:#181818;stroke-width:0.5;" x1="8" x2="1126.6002" y1="555.3517" y2="555.3517"/><text fill="#000000" font-family="sans-serif" font-size="14" lengthAdjust="spacing" textLength="330.9308" x="13" y="574.3176">add_new_block(self, data: bytes, request_addr: str)</text><text fill="#000000" font-family="sans-serif" font-size="14" lengthAdjust="spacing" textLength="660.5037" x="13" y="593.3855">add_transaction_verification_result(self, uuid: uuid.UUID, node: pot.network.node.Node, result: bool)</text><text fill="#000000" font-family="sans-serif" font-size="14" lengthAdjust="spacing" textLength="299.6409" x="13" y="612.4534">block_new(self, data: bytes, request_addr: str)</text><text fill="#000000" font-family="sans-serif" font-size="14" lengthAdjust="spacing" textLength="1087.6002" x="13" y="631.5214">change_node_trust(self, change_node: pot.network.node.Node, change_type: pot.network.trust.TrustChangeType, change: int | None = None, additional_data: str = '')</text><text fill="#000000" font-family="sans-serif" font-size="14" lengthAdjust="spacing" textLength="351.2307" x="13" y="650.5893">is_self_node_is_registered(self, genesis_ip: str) -&gt; bool</text><text fill="#000000" font-family="sans-serif" font-size="14" lengthAdjust="spacing" textLength="300.3968" x="13" y="669.6572">load(self, only_from_file: bool = False) -&gt; None</text><text fill="#000000" font-family="sans-serif" font-size="14" lengthAdjust="spacing" textLength="358.6646" x="13" y="688.7251">load_from_validator_node(self, genesis_ip: str) -&gt; None</text><text fill="#000000" font-family="sans-serif" font-size="14" lengthAdjust="spacing" textLength="355.4446" x="13" y="707.793">node_new_validators(self, remote_addr: str, data: dict)</text><text fill="#000000" font-family="sans-serif" font-size="14" lengthAdjust="spacing" textLength="749.4172" x="13" y="726.8609">node_register(self, identifier: uuid.UUID, node_ip: str, port: int, n_type: pot.network.node.NodeType) -&gt; dict | tuple</text><text fill="#000000" font-family="sans-serif" font-size="14" lengthAdjust="spacing" textLength="317.1408" x="13" y="745.9289">node_trust_change(self, identifier: str, data: dict)</text><text fill="#000000" font-family="sans-serif" font-size="14" lengthAdjust="spacing" textLength="278.711" x="13" y="764.9968">node_update(self, data: dict) -&gt; dict | tuple</text><text fill="#000000" font-family="sans-serif" font-size="14" lengthAdjust="spacing" textLength="433.7604" x="13" y="784.0647">node_validator_agreement_done(self, remote_addr: str, data: dict)</text><text fill="#000000" font-family="sans-serif" font-size="14" lengthAdjust="spacing" textLength="397.3326" x="13" y="803.1326">node_validator_agreement_get(self, remote_addr: str) -&gt; dict</text><text fill="#000000" font-family="sans-serif" font-size="14" lengthAdjust="spacing" textLength="407.1746" x="13" y="822.2005">node_validator_agreement_list_set(self, uuids: list[uuid.UUID])</text><text fill="#000000" font-family="sans-serif" font-size="14" lengthAdjust="spacing" textLength="430.5825" x="13" y="841.2684">node_validator_agreement_start(self, remote_addr: str, data: dict)</text><text fill="#000000" font-family="sans-serif" font-size="14" lengthAdjust="spacing" textLength="428.6644" x="13" y="860.3364">node_validator_agreement_vote(self, remote_addr: str, data: dict)</text><text fill="#000000" font-family="sans-serif" font-size="14" lengthAdjust="spacing" textLength="407.3984" x="13" y="879.4043">populate_new_node(self, data: dict, request_addr: str) -&gt; None</text><text fill="#000000" font-family="sans-serif" font-size="14" lengthAdjust="spacing" textLength="1108.6002" x="13" y="898.4722">send_multiple_trust_change(self, nodes: list[pot.network.node.Node | uuid.UUID], change_type: pot.network.trust.TrustChangeType, change: int, additional_data: str = '')</text><text fill="#000000" font-family="sans-serif" font-size="14" lengthAdjust="spacing" textLength="687.0193" x="13" y="917.5401">send_new_transaction_verified(self, identifier: uuid.UUID, tx_verified: pot.network.transaction.TxVerified)</text><text fill="#000000" font-family="sans-serif" font-size="14" lengthAdjust="spacing" textLength="526.4821" x="13" y="936.608">send_transaction_populate(self, uuid: uuid.UUID, tx: pot.network.transaction.Tx)</text><text fill="#000000" font-family="sans-serif" font-size="14" lengthAdjust="spacing" textLength="622.3116" x="13" y="955.6759">send_transaction_verification(self, uuid: uuid.UUID, verified: bool, message: str | None = None)</text><text fill="#000000" font-family="sans-serif" font-size="14" lengthAdjust="spacing" textLength="159.3754" x="13" y="974.7439">send_validators_list(self)</text><text fill="#000000" font-family="sans-serif" font-size="14" lengthAdjust="spacing" textLength="280.6849" x="13" y="993.8118">transaction_get(self, identifier: str) -&gt; bytes</text><text fill="#000000" font-family="sans-serif" font-size="14" lengthAdjust="spacing" textLength="382.9546" x="13" y="1012.8797">transaction_new(self, data: bytes, request_addr: str) -&gt; dict</text><text fill="#000000" font-family="sans-serif" font-size="14" lengthAdjust="spacing" textLength="397.6964" x="13" y="1031.9476">transaction_populate(self, data: bytes, identifier: str) -&gt; None</text><text fill="#000000" font-family="sans-serif" font-size="14" lengthAdjust="spacing" textLength="560.0399" x="13" y="1051.0155">transaction_populate_verify_result(self, verified: bool, identifier: str, remote_addr: str)</text><text fill="#000000" font-family="sans-serif" font-size="14" lengthAdjust="spacing" textLength="468.7182" x="13" y="1070.0834">transaction_verified_new(self, identifier: str, data: str, request_addr: str)</text><text fill="#000000" font-family="sans-serif" font-size="14" lengthAdjust="spacing" textLength="376.7946" x="13" y="1089.1514">update_from_validator_node(self, genesis_ip: str) -&gt; None</text><text fill="#000000" font-family="sans-serif" font-size="14" lengthAdjust="spacing" textLength="199.7092" x="13" y="1108.2193">validator_agreement_end(self)</text></g><!--class pot.network.manager.Manager--><g id="elem_pot.network.manager.Manager"><rect codeLine="37" fill="#F1F1F1" height="105.2038" id="pot.network.manager.Manager" rx="2.5" ry="2.5" style="stroke:#181818;stroke-width:0.5;" width="238.8072" x="1389.9" y="1195.33"/><ellipse cx="1404.9" cy="1211.33" fill="#ADD1B2" rx="11" ry="11" style="stroke:#181818;stroke-width:1.0;"/><path d="M1404.3688,1218.2519 Q1402.6188,1218.2519 1401.4781,1217.5175 Q1400.3531,1216.7675 1399.7906,1215.4238 Q1399.2438,1214.0644 1399.2438,1212.2675 Q1399.2438,1210.2363 1399.9,1208.7831 Q1400.5563,1207.33 1401.8375,1206.5488 Q1403.1188,1205.7675 1404.9938,1205.7675 Q1405.8844,1205.7675 1406.5563,1205.955 Q1407.2281,1206.1269 1407.9156,1206.4706 L1407.1031,1208.4863 Q1406.4781,1208.1738 1405.9313,1208.0488 Q1405.4,1207.9238 1404.9156,1207.9238 Q1403.7438,1207.9238 1403.0406,1208.455 Q1402.3375,1208.9863 1402.0406,1209.9394 Q1401.7438,1210.8925 1401.7438,1212.1581 Q1401.7438,1214.1738 1402.4625,1215.1425 Q1403.1813,1216.0956 1404.775,1216.0956 Q1405.3688,1216.0956 1405.9938,1215.9394 Q1406.6188,1215.7831 1407.4469,1215.4081 L1407.4469,1217.6269 Q1406.7125,1217.9394 1405.9156,1218.0956 Q1405.1344,1218.2519 1404.3688,1218.2519 Z " fill="#000000"/><text fill="#000000" font-family="sans-serif" font-size="14" lengthAdjust="spacing" textLength="206.8072" x="1418.9" y="1216.762">pot.network.manager.Manager</text><line style="stroke:#181818;stroke-width:0.5;" x1="1390.9" x2="1627.7072" y1="1227.33" y2="1227.33"/><line style="stroke:#181818;stroke-width:0.5;" x1="1390.9" x2="1627.7072" y1="1235.33" y2="1235.33"/><text fill="#000000" font-family="sans-serif" font-size="14" lengthAdjust="spacing" textLength="109.5776" x="1395.9" y="1254.2959">get_storage(self)</text><text fill="#000000" font-family="sans-serif" font-size="14" lengthAdjust="spacing" textLength="184.4633" x="1395.9" y="1273.3639">has_empty_files(self) -&gt; bool</text><text fill="#000000" font-family="sans-serif" font-size="14" lengthAdjust="spacing" textLength="193.0453" x="1395.9" y="1292.4318">has_storage_files(self) -&gt; bool</text></g><!--class pot.network.storage.Storage--><g id="elem_pot.network.storage.Storage"><rect codeLine="42" fill="#F1F1F1" height="238.6792" id="pot.network.storage.Storage" rx="2.5" ry="2.5" style="stroke:#181818;stroke-width:0.5;" width="325.2907" x="1528.65" y="658.37"/><ellipse cx="1592.3217" cy="674.37" fill="#ADD1B2" rx="11" ry="11" style="stroke:#181818;stroke-width:1.0;"/><path d="M1591.7905,681.2919 Q1590.0405,681.2919 1588.8998,680.5575 Q1587.7748,679.8075 1587.2123,678.4638 Q1586.6655,677.1044 1586.6655,675.3075 Q1586.6655,673.2763 1587.3217,671.8231 Q1587.978,670.37 1589.2592,669.5888 Q1590.5405,668.8075 1592.4155,668.8075 Q1593.3061,668.8075 1593.978,668.995 Q1594.6498,669.1669 1595.3373,669.5106 L1594.5248,671.5263 Q1593.8998,671.2138 1593.353,671.0888 Q1592.8217,670.9638 1592.3373,670.9638 Q1591.1655,670.9638 1590.4623,671.495 Q1589.7592,672.0263 1589.4623,672.9794 Q1589.1655,673.9325 1589.1655,675.1981 Q1589.1655,677.2138 1589.8842,678.1825 Q1590.603,679.1356 1592.1967,679.1356 Q1592.7905,679.1356 1593.4155,678.9794 Q1594.0405,678.8231 1594.8686,678.4481 L1594.8686,680.6669 Q1594.1342,680.9794 1593.3373,681.1356 Q1592.5561,681.2919 1591.7905,681.2919 Z " fill="#000000"/><text fill="#000000" font-family="sans-serif" font-size="14" lengthAdjust="spacing" textLength="189.4473" x="1612.8217" y="679.802">pot.network.storage.Storage</text><line style="stroke:#181818;stroke-width:0.5;" x1="1529.65" x2="1852.9407" y1="690.37" y2="690.37"/><text fill="#000000" font-family="sans-serif" font-size="14" lengthAdjust="spacing" textLength="64.1478" x="1534.65" y="709.3359">PATH : str</text><text fill="#000000" font-family="sans-serif" font-size="14" lengthAdjust="spacing" textLength="58.7438" x="1534.65" y="728.4039">path : str</text><line style="stroke:#181818;stroke-width:0.5;" x1="1529.65" x2="1852.9407" y1="736.5058" y2="736.5058"/><text fill="#000000" font-family="sans-serif" font-size="14" lengthAdjust="spacing" textLength="121.1135" x="1534.65" y="755.4718">get_size(self) -&gt; int</text><text fill="#000000" font-family="sans-serif" font-size="14" lengthAdjust="spacing" textLength="136.4575" x="1534.65" y="774.5397">has_files(self) -&gt; bool</text><text fill="#000000" font-family="sans-serif" font-size="14" lengthAdjust="spacing" textLength="194.8092" x="1534.65" y="793.6076">invalidate_cache(self) -&gt; None</text><text fill="#000000" font-family="sans-serif" font-size="14" lengthAdjust="spacing" textLength="138.7115" x="1534.65" y="812.6755">is_empty(self) -&gt; bool</text><text fill="#000000" font-family="sans-serif" font-size="14" lengthAdjust="spacing" textLength="120.5955" x="1534.65" y="831.7434">is_up_to_date(self)</text><text fill="#000000" font-family="sans-serif" font-size="14" lengthAdjust="spacing" textLength="130.4655" x="1534.65" y="850.8114">unlock(self) -&gt; None</text><text fill="#000000" font-family="sans-serif" font-size="14" lengthAdjust="spacing" textLength="122.1635" x="1534.65" y="869.8793">update_cache(self)</text><text fill="#000000" font-family="sans-serif" font-size="14" lengthAdjust="spacing" textLength="313.2907" x="1534.65" y="888.9472">wait_for_set_lock(self, timeout: int = 10) -&gt; None</text></g><!--class pot.network.service.Blockchain--><g id="elem_pot.network.service.Blockchain"><rect codeLine="54" fill="#F1F1F1" height="353.0867" id="pot.network.service.Blockchain" rx="2.5" ry="2.5" style="stroke:#181818;stroke-width:0.5;" width="750.3295" x="328.14" y="7"/><ellipse cx="596.8971" cy="23" fill="#ADD1B2" rx="11" ry="11" style="stroke:#181818;stroke-width:1.0;"/><path d="M596.3659,29.9219 Q594.6159,29.9219 593.4753,29.1875 Q592.3503,28.4375 591.7878,27.0938 Q591.2409,25.7344 591.2409,23.9375 Q591.2409,21.9063 591.8971,20.4531 Q592.5534,19 593.8346,18.2188 Q595.1159,17.4375 596.9909,17.4375 Q597.8815,17.4375 598.5534,17.625 Q599.2253,17.7969 599.9128,18.1406 L599.1003,20.1563 Q598.4753,19.8438 597.9284,19.7188 Q597.3971,19.5938 596.9128,19.5938 Q595.7409,19.5938 595.0378,20.125 Q594.3346,20.6563 594.0378,21.6094 Q593.7409,22.5625 593.7409,23.8281 Q593.7409,25.8438 594.4596,26.8125 Q595.1784,27.7656 596.7721,27.7656 Q597.3659,27.7656 597.9909,27.6094 Q598.6159,27.4531 599.444,27.0781 L599.444,29.2969 Q598.7096,29.6094 597.9128,29.7656 Q597.1315,29.9219 596.3659,29.9219 Z " fill="#000000"/><text fill="#000000" font-family="sans-serif" font-size="14" lengthAdjust="spacing" textLength="204.3152" x="617.3971" y="28.432">pot.network.service.Blockchain</text><line style="stroke:#181818;stroke-width:0.5;" x1="329.14" x2="1077.4695" y1="39" y2="39"/><text fill="#000000" font-family="sans-serif" font-size="14" lengthAdjust="spacing" textLength="74.7177" x="334.14" y="57.9659">txs_verified</text><line style="stroke:#181818;stroke-width:0.5;" x1="329.14" x2="1077.4695" y1="66.0679" y2="66.0679"/><text fill="#000000" font-family="sans-serif" font-size="14" lengthAdjust="spacing" textLength="319.6187" x="334.14" y="85.0339">add(self, block: pot.network.block.Block) -&gt; None</text><text fill="#000000" font-family="sans-serif" font-size="14" lengthAdjust="spacing" textLength="594.5638" x="334.14" y="104.1018">add_new_transaction(self, uuid: uuid.UUID, tx: pot.network.transaction.TxVerified) -&gt; None</text><text fill="#000000" font-family="sans-serif" font-size="14" lengthAdjust="spacing" textLength="252.489" x="334.14" y="123.1697">all(self) -&gt; list[pot.network.block.Block]</text><text fill="#000000" font-family="sans-serif" font-size="14" lengthAdjust="spacing" textLength="194.9633" x="334.14" y="142.2376">blocks_to_dict(self) -&gt; list[dict]</text><text fill="#000000" font-family="sans-serif" font-size="14" lengthAdjust="spacing" textLength="576.8398" x="334.14" y="161.3055">create_block(self, self_node: pot.network.node.SelfNodeInfo) -&gt; pot.network.block.Block</text><text fill="#000000" font-family="sans-serif" font-size="14" lengthAdjust="spacing" textLength="486.6941" x="334.14" y="180.3734">create_first_block(self, self_node: pot.network.node.SelfNodeInfo) -&gt; None</text><text fill="#000000" font-family="sans-serif" font-size="14" lengthAdjust="spacing" textLength="738.3295" x="334.14" y="199.4414">find_last_transactions_values_for_node(self, node: pot.network.node.Node, t_type: str | None = None) -&gt; list[dict]</text><text fill="#000000" font-family="sans-serif" font-size="14" lengthAdjust="spacing" textLength="572.7799" x="334.14" y="218.5093">find_tx_verified(self, identifier: uuid.UUID) -&gt; pot.network.transaction.TxVerified | None</text><text fill="#000000" font-family="sans-serif" font-size="14" lengthAdjust="spacing" textLength="301.3208" x="334.14" y="237.5772">get_last_block(self) -&gt; pot.network.block.Block</text><text fill="#000000" font-family="sans-serif" font-size="14" lengthAdjust="spacing" textLength="211.3292" x="334.14" y="256.6451">get_last_prev_hash(self) -&gt; bytes</text><text fill="#000000" font-family="sans-serif" font-size="14" lengthAdjust="spacing" textLength="109.5776" x="334.14" y="275.713">get_storage(self)</text><text fill="#000000" font-family="sans-serif" font-size="14" lengthAdjust="spacing" textLength="184.4633" x="334.14" y="294.7809">has_empty_files(self) -&gt; bool</text><text fill="#000000" font-family="sans-serif" font-size="14" lengthAdjust="spacing" textLength="193.0453" x="334.14" y="313.8489">has_storage_files(self) -&gt; bool</text><text fill="#000000" font-family="sans-serif" font-size="14" lengthAdjust="spacing" textLength="254.225" x="334.14" y="332.9168">load_from_bytes(self, b: bytes) -&gt; None</text><text fill="#000000" font-family="sans-serif" font-size="14" lengthAdjust="spacing" textLength="134.4135" x="334.14" y="351.9847">refresh(self) -&gt; None</text></g><!--class pot.network.manager.BlockchainManager--><g id="elem_pot.network.manager.BlockchainManager"><rect codeLine="72" fill="#F1F1F1" height="257.7471" id="pot.network.manager.BlockchainManager" rx="2.5" ry="2.5" style="stroke:#181818;stroke-width:0.5;" width="331.6187" x="1162.49" y="648.83"/><ellipse cx="1187.3647" cy="664.83" fill="#ADD1B2" rx="11" ry="11" style="stroke:#181818;stroke-width:1.0;"/><path d="M1186.8335,671.7519 Q1185.0835,671.7519 1183.9428,671.0175 Q1182.8178,670.2675 1182.2553,668.9237 Q1181.7085,667.5644 1181.7085,665.7675 Q1181.7085,663.7362 1182.3647,662.2831 Q1183.021,660.83 1184.3022,660.0487 Q1185.5835,659.2675 1187.4585,659.2675 Q1188.3491,659.2675 1189.021,659.455 Q1189.6928,659.6269 1190.3803,659.9706 L1189.5678,661.9862 Q1188.9428,661.6737 1188.396,661.5487 Q1187.8647,661.4237 1187.3803,661.4237 Q1186.2085,661.4237 1185.5053,661.955 Q1184.8022,662.4862 1184.5053,663.4394 Q1184.2085,664.3925 1184.2085,665.6581 Q1184.2085,667.6737 1184.9272,668.6425 Q1185.646,669.5956 1187.2397,669.5956 Q1187.8335,669.5956 1188.4585,669.4394 Q1189.0835,669.2831 1189.9116,668.9081 L1189.9116,671.1269 Q1189.1772,671.4394 1188.3803,671.5956 Q1187.5991,671.7519 1186.8335,671.7519 Z " fill="#000000"/><text fill="#000000" font-family="sans-serif" font-size="14" lengthAdjust="spacing" textLength="277.6749" x="1203.5591" y="670.262">pot.network.manager.BlockchainManager</text><line style="stroke:#181818;stroke-width:0.5;" x1="1163.49" x2="1493.1087" y1="680.83" y2="680.83"/><text fill="#000000" font-family="sans-serif" font-size="14" lengthAdjust="spacing" textLength="116.1996" x="1168.49" y="699.7959">blocks : list[Block]</text><line style="stroke:#181818;stroke-width:0.5;" x1="1163.49" x2="1493.1087" y1="707.8979" y2="707.8979"/><text fill="#000000" font-family="sans-serif" font-size="14" lengthAdjust="spacing" textLength="319.6187" x="1168.49" y="726.8639">add(self, block: pot.network.block.Block) -&gt; None</text><text fill="#000000" font-family="sans-serif" font-size="14" lengthAdjust="spacing" textLength="252.489" x="1168.49" y="745.9318">all(self) -&gt; list[pot.network.block.Block]</text><text fill="#000000" font-family="sans-serif" font-size="14" lengthAdjust="spacing" textLength="194.9633" x="1168.49" y="764.9997">blocks_to_dict(self) -&gt; list[dict]</text><text fill="#000000" font-family="sans-serif" font-size="14" lengthAdjust="spacing" textLength="301.3208" x="1168.49" y="784.0676">get_last_block(self) -&gt; pot.network.block.Block</text><text fill="#000000" font-family="sans-serif" font-size="14" lengthAdjust="spacing" textLength="211.3292" x="1168.49" y="803.1355">get_last_prev_hash(self) -&gt; bytes</text><text fill="#000000" font-family="sans-serif" font-size="14" lengthAdjust="spacing" textLength="109.5776" x="1168.49" y="822.2034">get_storage(self)</text><text fill="#000000" font-family="sans-serif" font-size="14" lengthAdjust="spacing" textLength="184.4633" x="1168.49" y="841.2714">has_empty_files(self) -&gt; bool</text><text fill="#000000" font-family="sans-serif" font-size="14" lengthAdjust="spacing" textLength="193.0453" x="1168.49" y="860.3393">has_storage_files(self) -&gt; bool</text><text fill="#000000" font-family="sans-serif" font-size="14" lengthAdjust="spacing" textLength="254.225" x="1168.49" y="879.4072">load_from_bytes(self, b: bytes) -&gt; None</text><text fill="#000000" font-family="sans-serif" font-size="14" lengthAdjust="spacing" textLength="134.4135" x="1168.49" y="898.4751">refresh(self) -&gt; None</text></g><!--class pot.network.storage.BlocksStorage--><g id="elem_pot.network.storage.BlocksStorage"><rect codeLine="85" fill="#F1F1F1" height="295.8829" id="pot.network.storage.BlocksStorage" rx="2.5" ry="2.5" style="stroke:#181818;stroke-width:0.5;" width="477.4562" x="1271.57" y="35.6"/><ellipse cx="1390.2825" cy="51.6" fill="#ADD1B2" rx="11" ry="11" style="stroke:#181818;stroke-width:1.0;"/><path d="M1389.7513,58.5219 Q1388.0013,58.5219 1386.8607,57.7875 Q1385.7357,57.0375 1385.1732,55.6937 Q1384.6263,54.3344 1384.6263,52.5375 Q1384.6263,50.5062 1385.2825,49.0531 Q1385.9388,47.6 1387.22,46.8187 Q1388.5013,46.0375 1390.3763,46.0375 Q1391.2669,46.0375 1391.9388,46.225 Q1392.6107,46.3969 1393.2982,46.7406 L1392.4857,48.7562 Q1391.8607,48.4437 1391.3138,48.3187 Q1390.7825,48.1937 1390.2982,48.1937 Q1389.1263,48.1937 1388.4232,48.725 Q1387.72,49.2562 1387.4232,50.2094 Q1387.1263,51.1625 1387.1263,52.4281 Q1387.1263,54.4437 1387.845,55.4125 Q1388.5638,56.3656 1390.1575,56.3656 Q1390.7513,56.3656 1391.3763,56.2094 Q1392.0013,56.0531 1392.8294,55.6781 L1392.8294,57.8969 Q1392.095,58.2094 1391.2982,58.3656 Q1390.5169,58.5219 1389.7513,58.5219 Z " fill="#000000"/><text fill="#000000" font-family="sans-serif" font-size="14" lengthAdjust="spacing" textLength="231.5311" x="1410.7825" y="57.032">pot.network.storage.BlocksStorage</text><line style="stroke:#181818;stroke-width:0.5;" x1="1272.57" x2="1748.0262" y1="67.6" y2="67.6"/><text fill="#000000" font-family="sans-serif" font-size="14" lengthAdjust="spacing" textLength="64.1478" x="1277.57" y="86.5659">PATH : str</text><line style="stroke:#181818;stroke-width:0.5;" x1="1272.57" x2="1748.0262" y1="94.6679" y2="94.6679"/><text fill="#000000" font-family="sans-serif" font-size="14" lengthAdjust="spacing" textLength="312.9548" x="1277.57" y="113.6339">dump(self, blocks: list[pot.network.block.Block])</text><text fill="#000000" font-family="sans-serif" font-size="14" lengthAdjust="spacing" textLength="121.1135" x="1277.57" y="132.7018">get_size(self) -&gt; int</text><text fill="#000000" font-family="sans-serif" font-size="14" lengthAdjust="spacing" textLength="136.4575" x="1277.57" y="151.7697">has_files(self) -&gt; bool</text><text fill="#000000" font-family="sans-serif" font-size="14" lengthAdjust="spacing" textLength="194.8092" x="1277.57" y="170.8376">invalidate_cache(self) -&gt; None</text><text fill="#000000" font-family="sans-serif" font-size="14" lengthAdjust="spacing" textLength="138.7115" x="1277.57" y="189.9055">is_empty(self) -&gt; bool</text><text fill="#000000" font-family="sans-serif" font-size="14" lengthAdjust="spacing" textLength="120.5955" x="1277.57" y="208.9734">is_up_to_date(self)</text><text fill="#000000" font-family="sans-serif" font-size="14" lengthAdjust="spacing" textLength="265.957" x="1277.57" y="228.0414">load(self) -&gt; list[pot.network.block.Block]</text><text fill="#000000" font-family="sans-serif" font-size="14" lengthAdjust="spacing" textLength="465.4562" x="1277.57" y="247.1093">load_from_file(self, f: &lt;class 'BinaryIO'&gt;) -&gt; list[pot.network.block.Block]</text><text fill="#000000" font-family="sans-serif" font-size="14" lengthAdjust="spacing" textLength="130.4655" x="1277.57" y="266.1772">unlock(self) -&gt; None</text><text fill="#000000" font-family="sans-serif" font-size="14" lengthAdjust="spacing" textLength="320.6688" x="1277.57" y="285.2451">update(self, blocks: list[pot.network.block.Block])</text><text fill="#000000" font-family="sans-serif" font-size="14" lengthAdjust="spacing" textLength="122.1635" x="1277.57" y="304.313">update_cache(self)</text><text fill="#000000" font-family="sans-serif" font-size="14" lengthAdjust="spacing" textLength="313.2907" x="1277.57" y="323.3809">wait_for_set_lock(self, timeout: int = 10) -&gt; None</text></g><!--link pot.network.storage.BlocksStorage to pot.network.storage.Storage--><g id="link_pot.network.storage.BlocksStorage_pot.network.storage.Storage"><path codeLine="100" d="M1555.27,331.68 C1586.06,432.38 1621.0789,546.956 1649.7989,640.926 " fill="none" id="pot.network.storage.BlocksStorage-to-pot.network.storage.Storage" style="stroke:#181818;stroke-width:1.0;"/><polygon fill="none" points="1655.06,658.14,1655.5369,639.1723,1644.0609,642.6797,1655.06,658.14" style="stroke:#181818;stroke-width:1.0;"/></g><!--link pot.network.manager.BlockchainManager to pot.network.manager.Manager--><g id="link_pot.network.manager.BlockchainManager_pot.network.manager.Manager"><path codeLine="101" d="M1377.88,906.96 C1414.56,1001.86 1456.1202,1109.3607 1482.7802,1178.3307 " fill="none" id="pot.network.manager.BlockchainManager-to-pot.network.manager.Manager" style="stroke:#181818;stroke-width:1.0;"/><polygon fill="none" points="1489.27,1195.12,1488.3766,1176.1674,1477.1837,1180.4939,1489.27,1195.12" style="stroke:#181818;stroke-width:1.0;"/></g><!--link pot.network.storage.BlocksStorage to pot.network.manager.BlockchainManager--><g id="link_pot.network.storage.BlocksStorage_pot.network.manager.BlockchainManager"><path codeLine="102" d="M1465.08,331.68 C1435.18,428.96 1399.8952,543.7695 1371.2552,636.9595 " fill="none" id="pot.network.storage.BlocksStorage-to-pot.network.manager.BlockchainManager" style="stroke:#181818;stroke-width:1.0;"/><polygon fill="#181818" points="1367.73,648.43,1373.3161,643.8698,1371.2552,636.9595,1365.6691,641.5197,1367.73,648.43" style="stroke:#181818;stroke-width:1.0;"/><text fill="#000000" font-family="sans-serif" font-size="13" lengthAdjust="spacing" textLength="52.546" x="1447.24" y="404.977">_storage</text></g><!--link pot.network.storage.Storage to pot.network.manager.Manager--><g id="link_pot.network.storage.Storage_pot.network.manager.Manager"><path codeLine="103" d="M1645.14,897.46 C1607.86,993.37 1561.5378,1112.5353 1533.8178,1183.8453 " fill="none" id="pot.network.storage.Storage-to-pot.network.manager.Manager" style="stroke:#181818;stroke-width:1.0;"/><polygon fill="#181818" points="1529.47,1195.03,1535.3721,1190.8869,1533.8178,1183.8453,1527.9157,1187.9884,1529.47,1195.03" style="stroke:#181818;stroke-width:1.0;"/><text fill="#000000" font-family="sans-serif" font-size="13" lengthAdjust="spacing" textLength="52.546" x="1545.12" y="1161.227">_storage</text></g><!--link pot.network.service.Blockchain to pot.network.manager.BlockchainManager--><g id="link_pot.network.service.Blockchain_pot.network.manager.BlockchainManager"><path codeLine="104" d="M1053.01,360.5 C1086.15,384.47 1117.64,410.71 1145.3,439.08 C1203.35,498.65 1240.8604,563.9403 1271.6704,632.0403 " fill="none" id="pot.network.service.Blockchain-to-pot.network.manager.BlockchainManager" style="stroke:#181818;stroke-width:1.0;"/><polygon fill="none" points="1279.09,648.44,1277.137,629.5671,1266.2038,634.5135,1279.09,648.44" style="stroke:#181818;stroke-width:1.0;"/></g><!--link pot.network.service.Blockchain to pot.network.blockchain.PoT--><g id="link_pot.network.service.Blockchain_pot.network.blockchain.PoT"><path codeLine="105" d="M662.96,360.21 C657.2,385.27 653.8191,400.0252 647.6291,426.9452 " fill="none" id="pot.network.service.Blockchain-to-pot.network.blockchain.PoT" style="stroke:#181818;stroke-width:1.0;"/><polygon fill="#181818" points="644.94,438.64,650.1828,433.689,647.6291,426.9452,642.3863,431.8962,644.94,438.64" style="stroke:#181818;stroke-width:1.0;"/><text fill="#000000" font-family="sans-serif" font-size="13" lengthAdjust="spacing" textLength="65.3511" x="656.43" y="404.977">blockchain</text></g><!--SRC=[vLXRRzis57xFho3wagPmXEvLs0Ai6uRceLs1k7iP2eAHZcoYCgcHb1DltN_V8KL9j4Z9Rje21VPYH-AvVESxF1T7Wo62xK0th80xQ9XYHYeYf82BecPQasUDD9a0yo3Ln-o-biN7OikuoDx9zJF2D9a_9lzS43A-mWSXIz3uhQ6kg7t0lyqZDPBkGV6AGualM5bI0G_KQJwteYjICiDoSdyme5T4mLyjQ4DHKEL46tNbjOnYGhF2S2cymOAv1mMwhOstrRQypDrdzlxzxQyhXoe_YiE-oTxYXtLcLT6tbFLL7u_5TpOo35vim8MB25lTumZUpthtCkRGJ6ISeMnjFtznCciKwULpmeKXdyXRp2BvoNsjB47Sai5gsc56U7XuUManSas7d51yKB3Xse22qeFTW02D1xpfuYBNDuuIrAqbwwMag0-qKd97Arv3Hnhw-8tL6foAXU9LEhazgtbfhvnplU3CQpg0zdOCYjehATX90oFrVMfANfYhNhEFo-lm4eInzqv55w9tlaBQbN6Cua4Y4qEsR0OSLEiHsJTjKm-GNRvebvw4ypcyROCluUYgkVCvDoETRAC0TkY1biZSvt2Kih41CsDYWBAaNYFfUC722jGviM__76Z_i0X06wRCbqQnb-PS9XhPj3LIx-vQS3L7gLIr1nTLWoZf3bi7n_IaqkzweISXUPymjoCvNzGAJXI_WshZZFldKFypbOBDknUSWXfCPUl7FxpCu2tqr5CzrvxDuvBffCcm-S-P7N7RBhKYE0CriuHPQevwv-1Yx3dkHZlBzZ1qFLRAfBwxbcddn4JZx5aILDe2VqT6KXZy1KsPw8Wx7C_BAL5HtufQmiHwRo28TARtUNE98TermgVDZ5Ghm7JwzFsRsdDsJE1TKDcRxZjQT2RdRjF1p6ERaehv4hUmjqnJs3Ncu0PYDwh2sMdFlKvI8WdEAsHttNS4RdBkmBtxUVsQE6PiSsDcEpmusFnl63rZn_3Gqg2vy8m2BLYn3JGzuTm77Mjgd6XstHkccikj63Qzq8fFUU02NpumRcY5gSHfGeC5qV0ToBQRqrYsFxmSBQKv1BNd1MIlXlKqfZ4ISKoQHptPLZq4jndcyJxS6GWZwpVSe4YUrlo6lXeQh-kHocYw18W-zDkiTXd1nZBHiw-iKA709YBSnuTbCR4BtU6PdL-tefBEs8p_qNB55TRxa-txm2kEBHepRK9UjUqMs4xSdGdQnUBMRVoKZIT1n8rp6ap1fN4PaP5EfdVfIzC5T7zS8FE43XgDWZt54ju6DUXdpxVeK-5Ax_pqDU4dKPWd1HNEb-satXVRy5Y2fnfo93d-2DN4Rrl3xNzIxNxrylhVPxcVLouyVMgg7Kd5iwriTqsOrDIA7MRfwhiOWSDlwBEkrPW5Yyv7M-NanuxSorTSC7Mu_VtovYnpY_FtSxdyUbFxTFAlhp_TB6q-5-TrYCZCPBix2ycBCzjHJleIkrZQsUOCdZ8JxoopqKNOJbjwiVJVlZpuNzz_]--></g></svg>