<?xml version="1.0" encoding="us-ascii" standalone="no"?><svg xmlns="http://www.w3.org/2000/svg" xmlns:xlink="http://www.w3.org/1999/xlink" contentStyleType="text/css" height="228px" preserveAspectRatio="none" style="width:1182px;height:228px;background:#FFFFFF;" version="1.1" viewBox="0 0 1182 228" width="1182px" zoomAndPan="magnify"><defs/><g><!--class post.network.manager.Manager--><g id="elem_pot.network.manager.Manager"><rect codeLine="2" fill="#F1F1F1" height="52.6019" id="pot.network.manager.Manager" rx="1.25" ry="1.25" style="stroke:#181818;stroke-width:0.25;" width="121" x="462" y="171.91"/><ellipse cx="469.5" cy="179.91" fill="#ADD1B2" rx="5.5" ry="5.5" style="stroke:#181818;stroke-width:0.5;"/><path d="M469.2344,183.3709 Q468.3594,183.3709 467.7891,183.0038 Q467.2266,182.6288 466.9453,181.9569 Q466.6719,181.2772 466.6719,180.3788 Q466.6719,179.3631 467,178.6366 Q467.3281,177.91 467.9688,177.5194 Q468.6094,177.1288 469.5469,177.1288 Q469.9922,177.1288 470.3281,177.2225 Q470.6641,177.3084 471.0078,177.4803 L470.6016,178.4881 Q470.2891,178.3319 470.0156,178.2694 Q469.75,178.2069 469.5078,178.2069 Q468.9219,178.2069 468.5703,178.4725 Q468.2188,178.7381 468.0703,179.2147 Q467.9219,179.6913 467.9219,180.3241 Q467.9219,181.3319 468.2813,181.8163 Q468.6406,182.2928 469.4375,182.2928 Q469.7344,182.2928 470.0469,182.2147 Q470.3594,182.1366 470.7734,181.9491 L470.7734,183.0584 Q470.4063,183.2147 470.0078,183.2928 Q469.6172,183.3709 469.2344,183.3709 Z " fill="#000000"/><text fill="#000000" font-family="sans-serif" font-size="7" lengthAdjust="spacing" textLength="105" x="476.5" y="182.626">pot.network.manager.Manager</text><line style="stroke:#181818;stroke-width:0.25;" x1="462.5" x2="582.5" y1="187.91" y2="187.91"/><line style="stroke:#181818;stroke-width:0.25;" x1="462.5" x2="582.5" y1="191.91" y2="191.91"/><text fill="#000000" font-family="sans-serif" font-size="7" lengthAdjust="spacing" textLength="43.5" x="465" y="201.393">get_storage()</text><text fill="#000000" font-family="sans-serif" font-size="7" lengthAdjust="spacing" textLength="82" x="465" y="210.9269">has_empty_files() -&gt; bool</text><text fill="#000000" font-family="sans-serif" font-size="7" lengthAdjust="spacing" textLength="86.5" x="465" y="220.4609">has_storage_files() -&gt; bool</text></g><!--class post.network.manager.BlockchainManager--><g id="elem_pot.network.manager.BlockchainManager"><rect codeLine="7" fill="#F1F1F1" height="81.2038" id="pot.network.manager.BlockchainManager" rx="1.25" ry="1.25" style="stroke:#181818;stroke-width:0.25;" width="163" x="3.5" y="32.1"/><ellipse cx="13.7" cy="40.1" fill="#ADD1B2" rx="5.5" ry="5.5" style="stroke:#181818;stroke-width:0.5;"/><path d="M13.4344,43.5609 Q12.5594,43.5609 11.9891,43.1937 Q11.4266,42.8187 11.1453,42.1469 Q10.8719,41.4672 10.8719,40.5687 Q10.8719,39.5531 11.2,38.8266 Q11.5281,38.1 12.1688,37.7094 Q12.8094,37.3187 13.7469,37.3187 Q14.1922,37.3187 14.5281,37.4125 Q14.8641,37.4984 15.2078,37.6703 L14.8016,38.6781 Q14.4891,38.5219 14.2156,38.4594 Q13.95,38.3969 13.7078,38.3969 Q13.1219,38.3969 12.7703,38.6625 Q12.4188,38.9281 12.2703,39.4047 Q12.1219,39.8812 12.1219,40.5141 Q12.1219,41.5219 12.4813,42.0062 Q12.8406,42.4828 13.6375,42.4828 Q13.9344,42.4828 14.2469,42.4047 Q14.5594,42.3266 14.9734,42.1391 L14.9734,43.2484 Q14.6063,43.4047 14.2078,43.4828 Q13.8172,43.5609 13.4344,43.5609 Z " fill="#000000"/><text fill="#000000" font-family="sans-serif" font-size="7" lengthAdjust="spacing" textLength="141" x="21.3" y="42.816">pot.network.manager.BlockchainManager</text><line style="stroke:#181818;stroke-width:0.25;" x1="4" x2="166" y1="48.1" y2="48.1"/><text fill="#000000" font-family="sans-serif" font-size="7" lengthAdjust="spacing" textLength="59.5" x="6.5" y="57.583">blocks : list[Block]</text><line style="stroke:#181818;stroke-width:0.25;" x1="4" x2="166" y1="61.634" y2="61.634"/><text fill="#000000" font-family="sans-serif" font-size="7" lengthAdjust="spacing" textLength="84.5" x="6.5" y="71.1169">add(block: Block) -&gt; None</text><text fill="#000000" font-family="sans-serif" font-size="7" lengthAdjust="spacing" textLength="88" x="6.5" y="80.6509">blocks_to_dict() -&gt; list[dict]</text><text fill="#000000" font-family="sans-serif" font-size="7" lengthAdjust="spacing" textLength="157" x="6.5" y="90.1848">create_first_block(self_node: SelfNode) -&gt; None</text><text fill="#000000" font-family="sans-serif" font-size="7" lengthAdjust="spacing" textLength="113.5" x="6.5" y="99.7188">load_from_bytes(b: bytes) -&gt; None</text><text fill="#000000" font-family="sans-serif" font-size="7" lengthAdjust="spacing" textLength="57" x="6.5" y="109.2528">refresh() -&gt; None</text></g><!--class post.network.manager.NodeManager--><g id="elem_pot.network.manager.NodeManager"><rect codeLine="15" fill="#F1F1F1" height="138.4075" id="pot.network.manager.NodeManager" rx="1.25" ry="1.25" style="stroke:#181818;stroke-width:0.25;" width="195" x="184" y="3.5"/><ellipse cx="217.875" cy="11.5" fill="#ADD1B2" rx="5.5" ry="5.5" style="stroke:#181818;stroke-width:0.5;"/><path d="M217.6094,14.9609 Q216.7344,14.9609 216.1641,14.5938 Q215.6016,14.2188 215.3203,13.5469 Q215.0469,12.8672 215.0469,11.9688 Q215.0469,10.9531 215.375,10.2266 Q215.7031,9.5 216.3438,9.1094 Q216.9844,8.7188 217.9219,8.7188 Q218.3672,8.7188 218.7031,8.8125 Q219.0391,8.8984 219.3828,9.0703 L218.9766,10.0781 Q218.6641,9.9219 218.3906,9.8594 Q218.125,9.7969 217.8828,9.7969 Q217.2969,9.7969 216.9453,10.0625 Q216.5938,10.3281 216.4453,10.8047 Q216.2969,11.2813 216.2969,11.9141 Q216.2969,12.9219 216.6563,13.4063 Q217.0156,13.8828 217.8125,13.8828 Q218.1094,13.8828 218.4219,13.8047 Q218.7344,13.7266 219.1484,13.5391 L219.1484,14.6484 Q218.7813,14.8047 218.3828,14.8828 Q217.9922,14.9609 217.6094,14.9609 Z " fill="#000000"/><text fill="#000000" font-family="sans-serif" font-size="7" lengthAdjust="spacing" textLength="123" x="228.125" y="14.216">pot.network.manager.NodeManager</text><line style="stroke:#181818;stroke-width:0.25;" x1="184.5" x2="378.5" y1="19.5" y2="19.5"/><line style="stroke:#181818;stroke-width:0.25;" x1="184.5" x2="378.5" y1="23.5" y2="23.5"/><text fill="#000000" font-family="sans-serif" font-size="7" lengthAdjust="spacing" textLength="84.5" x="187" y="32.983">add(node: Node) -&gt; None</text><text fill="#000000" font-family="sans-serif" font-size="7" lengthAdjust="spacing" textLength="55.5" x="187" y="42.5169">all() -&gt; list[Node]</text><text fill="#000000" font-family="sans-serif" font-size="7" lengthAdjust="spacing" textLength="165" x="187" y="52.0509">count_validator_nodes(self_node: SelfNode) -&gt; int</text><text fill="#000000" font-family="sans-serif" font-size="7" lengthAdjust="spacing" textLength="128" x="187" y="61.5848">exclude_self_node(self_ip: str) -&gt; None</text><text fill="#000000" font-family="sans-serif" font-size="7" lengthAdjust="spacing" textLength="169.5" x="187" y="71.1188">find_by_identifier(identifier: UUID) -&gt; Node | None</text><text fill="#000000" font-family="sans-serif" font-size="7" lengthAdjust="spacing" textLength="189" x="187" y="80.6528">find_by_request_addr(request_addr: str) -&gt; Node | None</text><text fill="#000000" font-family="sans-serif" font-size="7" lengthAdjust="spacing" textLength="114.5" x="187" y="90.1867">get_validator_nodes() -&gt; list[Node]</text><text fill="#000000" font-family="sans-serif" font-size="7" lengthAdjust="spacing" textLength="34" x="187" y="99.7207">len() -&gt; int</text><text fill="#000000" font-family="sans-serif" font-size="7" lengthAdjust="spacing" textLength="57" x="187" y="109.2546">refresh() -&gt; None</text><text fill="#000000" font-family="sans-serif" font-size="7" lengthAdjust="spacing" textLength="148" x="187" y="118.7886">set_validators(validators: list[UUID]) -&gt; None</text><text fill="#000000" font-family="sans-serif" font-size="7" lengthAdjust="spacing" textLength="64" x="187" y="128.3226">to_dict() -&gt; list[dict]</text><text fill="#000000" font-family="sans-serif" font-size="7" lengthAdjust="spacing" textLength="160" x="187" y="137.8565">update_from_json(nodes_dict: list[dict]) -&gt; None</text></g><!--class post.network.manager.TransactionToVerifyManager--><g id="elem_pot.network.manager.TransactionToVerifyManager"><rect codeLine="29" fill="#F1F1F1" height="90.7377" id="pot.network.manager.TransactionToVerifyManager" rx="1.25" ry="1.25" style="stroke:#181818;stroke-width:0.25;" width="252" x="396.5" y="27.335"/><ellipse cx="434.625" cy="35.335" fill="#ADD1B2" rx="5.5" ry="5.5" style="stroke:#181818;stroke-width:0.5;"/><path d="M434.3594,38.7959 Q433.4844,38.7959 432.9141,38.4287 Q432.3516,38.0537 432.0703,37.3819 Q431.7969,36.7022 431.7969,35.8037 Q431.7969,34.7881 432.125,34.0616 Q432.4531,33.335 433.0938,32.9444 Q433.7344,32.5537 434.6719,32.5537 Q435.1172,32.5537 435.4531,32.6475 Q435.7891,32.7334 436.1328,32.9053 L435.7266,33.9131 Q435.4141,33.7569 435.1406,33.6944 Q434.875,33.6319 434.6328,33.6319 Q434.0469,33.6319 433.6953,33.8975 Q433.3438,34.1631 433.1953,34.6397 Q433.0469,35.1162 433.0469,35.7491 Q433.0469,36.7569 433.4063,37.2412 Q433.7656,37.7178 434.5625,37.7178 Q434.8594,37.7178 435.1719,37.6397 Q435.4844,37.5616 435.8984,37.3741 L435.8984,38.4834 Q435.5313,38.6397 435.1328,38.7178 Q434.7422,38.7959 434.3594,38.7959 Z " fill="#000000"/><text fill="#000000" font-family="sans-serif" font-size="7" lengthAdjust="spacing" textLength="171.5" x="444.875" y="38.051">pot.network.manager.TransactionToVerifyManager</text><line style="stroke:#181818;stroke-width:0.25;" x1="397" x2="648" y1="43.335" y2="43.335"/><line style="stroke:#181818;stroke-width:0.25;" x1="397" x2="648" y1="47.335" y2="47.335"/><text fill="#000000" font-family="sans-serif" font-size="7" lengthAdjust="spacing" textLength="146.5" x="399.5" y="56.818">add(identifier: UUID, tx: TxToVerify) -&gt; None</text><text fill="#000000" font-family="sans-serif" font-size="7" lengthAdjust="spacing" textLength="246" x="399.5" y="66.3519">add_verification_result(identifier: UUID, node: Node, result: bool) -&gt; None</text><text fill="#000000" font-family="sans-serif" font-size="7" lengthAdjust="spacing" textLength="96" x="399.5" y="75.8859">all() -&gt; dict[UUID, TxToVerify]</text><text fill="#000000" font-family="sans-serif" font-size="7" lengthAdjust="spacing" textLength="141" x="399.5" y="85.4198">find(identifier: UUID) -&gt; TxToVerify | None</text><text fill="#000000" font-family="sans-serif" font-size="7" lengthAdjust="spacing" textLength="138.5" x="399.5" y="94.9538">get(identifier: UUID) -&gt; TxToVerify | None</text><text fill="#000000" font-family="sans-serif" font-size="7" lengthAdjust="spacing" textLength="114.5" x="399.5" y="104.4878">pop(identifier: UUID) -&gt; TxToVerify</text><text fill="#000000" font-family="sans-serif" font-size="7" lengthAdjust="spacing" textLength="57" x="399.5" y="114.0217">refresh() -&gt; None</text></g><!--class post.network.manager.TransactionVerifiedManager--><g id="elem_pot.network.manager.TransactionVerifiedManager"><rect codeLine="38" fill="#F1F1F1" height="71.6698" id="pot.network.manager.TransactionVerifiedManager" rx="1.25" ry="1.25" style="stroke:#181818;stroke-width:0.25;" width="186.5" x="666.25" y="36.87"/><ellipse cx="673.75" cy="44.87" fill="#ADD1B2" rx="5.5" ry="5.5" style="stroke:#181818;stroke-width:0.5;"/><path d="M673.4844,48.3309 Q672.6094,48.3309 672.0391,47.9638 Q671.4766,47.5888 671.1953,46.9169 Q670.9219,46.2372 670.9219,45.3388 Q670.9219,44.3231 671.25,43.5966 Q671.5781,42.87 672.2188,42.4794 Q672.8594,42.0888 673.7969,42.0888 Q674.2422,42.0888 674.5781,42.1825 Q674.9141,42.2684 675.2578,42.4403 L674.8516,43.4481 Q674.5391,43.2919 674.2656,43.2294 Q674,43.1669 673.7578,43.1669 Q673.1719,43.1669 672.8203,43.4325 Q672.4688,43.6981 672.3203,44.1747 Q672.1719,44.6513 672.1719,45.2841 Q672.1719,46.2919 672.5313,46.7763 Q672.8906,47.2528 673.6875,47.2528 Q673.9844,47.2528 674.2969,47.1747 Q674.6094,47.0966 675.0234,46.9091 L675.0234,48.0184 Q674.6563,48.1747 674.2578,48.2528 Q673.8672,48.3309 673.4844,48.3309 Z " fill="#000000"/><text fill="#000000" font-family="sans-serif" font-size="7" lengthAdjust="spacing" textLength="170.5" x="680.75" y="47.586">pot.network.manager.TransactionVerifiedManager</text><line style="stroke:#181818;stroke-width:0.25;" x1="666.75" x2="852.25" y1="52.87" y2="52.87"/><line style="stroke:#181818;stroke-width:0.25;" x1="666.75" x2="852.25" y1="56.87" y2="56.87"/><text fill="#000000" font-family="sans-serif" font-size="7" lengthAdjust="spacing" textLength="145.5" x="669.25" y="66.353">add(identifier: UUID, tx: TxVerified) -&gt; None</text><text fill="#000000" font-family="sans-serif" font-size="7" lengthAdjust="spacing" textLength="95" x="669.25" y="75.8869">all() -&gt; dict[UUID, TxVerified]</text><text fill="#000000" font-family="sans-serif" font-size="7" font-style="italic" lengthAdjust="spacing" textLength="122.5" x="669.25" y="85.4209">delete(identifiers: list) -&gt; list[TxVerified]</text><text fill="#000000" font-family="sans-serif" font-size="7" lengthAdjust="spacing" textLength="140" x="669.25" y="94.9548">find(identifier: UUID) -&gt; TxVerified | None</text><text fill="#000000" font-family="sans-serif" font-size="7" lengthAdjust="spacing" textLength="57" x="669.25" y="104.4888">refresh() -&gt; None</text></g><!--class post.network.manager.ValidatorAgreement--><g id="elem_pot.network.manager.ValidatorAgreement"><rect codeLine="45" fill="#F1F1F1" height="109.8056" id="pot.network.manager.ValidatorAgreement" rx="1.25" ry="1.25" style="stroke:#181818;stroke-width:0.25;" width="308.5" x="870.25" y="17.8"/><ellipse cx="951.375" cy="25.8" fill="#ADD1B2" rx="5.5" ry="5.5" style="stroke:#181818;stroke-width:0.5;"/><path d="M951.1094,29.2609 Q950.2344,29.2609 949.6641,28.8937 Q949.1016,28.5187 948.8203,27.8469 Q948.5469,27.1672 948.5469,26.2687 Q948.5469,25.2531 948.875,24.5266 Q949.2031,23.8 949.8438,23.4094 Q950.4844,23.0187 951.4219,23.0187 Q951.8672,23.0187 952.2031,23.1125 Q952.5391,23.1984 952.8828,23.3703 L952.4766,24.3781 Q952.1641,24.2219 951.8906,24.1594 Q951.625,24.0969 951.3828,24.0969 Q950.7969,24.0969 950.4453,24.3625 Q950.0938,24.6281 949.9453,25.1047 Q949.7969,25.5812 949.7969,26.2141 Q949.7969,27.2219 950.1563,27.7062 Q950.5156,28.1828 951.3125,28.1828 Q951.6094,28.1828 951.9219,28.1047 Q952.2344,28.0266 952.6484,27.8391 L952.6484,28.9484 Q952.2813,29.1047 951.8828,29.1828 Q951.4922,29.2609 951.1094,29.2609 Z " fill="#000000"/><text fill="#000000" font-family="sans-serif" font-size="7" lengthAdjust="spacing" textLength="142" x="961.625" y="28.516">pot.network.manager.ValidatorAgreement</text><line style="stroke:#181818;stroke-width:0.25;" x1="870.75" x2="1178.25" y1="33.8" y2="33.8"/><text fill="#000000" font-family="sans-serif" font-size="7" lengthAdjust="spacing" textLength="53" x="873.25" y="43.283">is_started : bool</text><text fill="#000000" font-family="sans-serif" font-size="7" lengthAdjust="spacing" textLength="105" x="873.25" y="52.8169">last_successful_agreement : int</text><text fill="#000000" font-family="sans-serif" font-size="7" lengthAdjust="spacing" textLength="63.5" x="873.25" y="62.3509">leaders : list[UUID]</text><text fill="#000000" font-family="sans-serif" font-size="7" lengthAdjust="spacing" textLength="57.5" x="873.25" y="71.8848">uuids : list[UUID]</text><line style="stroke:#181818;stroke-width:0.25;" x1="870.75" x2="1178.25" y1="75.9358" y2="75.9358"/><text fill="#000000" font-family="sans-serif" font-size="7" lengthAdjust="spacing" textLength="55" x="873.25" y="85.4188">all() -&gt; list[UUID]</text><text fill="#000000" font-family="sans-serif" font-size="7" lengthAdjust="spacing" textLength="302.5" x="873.25" y="94.9528">prepare_info_data(is_started: bool, last_success_agreement: int, leaders: list[UUID]) -&gt; dict</text><text fill="#000000" font-family="sans-serif" font-size="7" lengthAdjust="spacing" textLength="73" x="873.25" y="104.4867">refresh_info() -&gt; None</text><text fill="#000000" font-family="sans-serif" font-size="7" lengthAdjust="spacing" textLength="70" x="873.25" y="114.0207">refresh_list() -&gt; None</text><text fill="#000000" font-family="sans-serif" font-size="7" lengthAdjust="spacing" textLength="98" x="873.25" y="123.5546">set(uuids: list[UUID]) -&gt; None</text></g><!--link post.network.manager.BlockchainManager to post.network.manager.Manager--><g id="link_pot.network.manager.BlockchainManager_pot.network.manager.Manager"><path codeLine="56" d="M128.715,113.42 C142.615,124.245 158.655,134.89 175,141.91 C269.675,182.565 381.4079,193.4939 452.7829,196.4789 " fill="none" id="pot.network.manager.BlockchainManager-to-pot.network.manager.Manager" style="stroke:#181818;stroke-width:0.5;"/><polygon fill="none" points="461.775,196.855,452.9082,193.4816,452.6575,199.4763,461.775,196.855" style="stroke:#181818;stroke-width:0.5;"/></g><!--link post.network.manager.NodeManager to post.network.manager.Manager--><g id="link_pot.network.manager.NodeManager_pot.network.manager.Manager"><path codeLine="57" d="M379.15,137.405 C381.945,138.95 384.735,140.455 387.5,141.91 C411.13,154.315 429.788,162.6268 453.418,172.0318 " fill="none" id="pot.network.manager.NodeManager-to-pot.network.manager.Manager" style="stroke:#181818;stroke-width:0.5;"/><polygon fill="none" points="461.78,175.36,454.5274,169.2445,452.3086,174.8192,461.78,175.36" style="stroke:#181818;stroke-width:0.5;"/></g><!--link post.network.manager.TransactionToVerifyManager to post.network.manager.Manager--><g id="link_pot.network.manager.TransactionToVerifyManager_pot.network.manager.Manager"><path codeLine="58" d="M522.5,118.155 C522.5,136.125 522.5,147.185 522.5,162.665 " fill="none" id="pot.network.manager.TransactionToVerifyManager-to-pot.network.manager.Manager" style="stroke:#181818;stroke-width:0.5;"/><polygon fill="none" points="522.5,171.665,525.5,162.665,519.5,162.665,522.5,171.665" style="stroke:#181818;stroke-width:0.5;"/></g><!--link post.network.manager.TransactionVerifiedManager to post.network.manager.Manager--><g id="link_pot.network.manager.TransactionVerifiedManager_pot.network.manager.Manager"><path codeLine="59" d="M711.07,108.725 C694.52,120.075 675.61,132.195 657.5,141.91 C633.92,154.555 615.2168,162.939 591.5368,172.324 " fill="none" id="pot.network.manager.TransactionVerifiedManager-to-pot.network.manager.Manager" style="stroke:#181818;stroke-width:0.5;"/><polygon fill="none" points="583.17,175.64,592.6422,175.1129,590.4315,169.5351,583.17,175.64" style="stroke:#181818;stroke-width:0.5;"/></g><!--link post.network.manager.ValidatorAgreement to post.network.manager.Manager--><g id="link_pot.network.manager.ValidatorAgreement_pot.network.manager.Manager"><path codeLine="60" d="M903.695,127.805 C889.635,133.055 875.365,137.905 861.5,141.91 C766.23,169.41 660.6786,183.7646 592.1036,191.1246 " fill="none" id="pot.network.manager.ValidatorAgreement-to-pot.network.manager.Manager" style="stroke:#181818;stroke-width:0.5;"/><polygon fill="none" points="583.155,192.085,592.4238,194.1074,591.7835,188.1417,583.155,192.085" style="stroke:#181818;stroke-width:0.5;"/></g><!--SRC=[fLR1Sjem4Btp5PgSd1dW0tp8J3kzzD1SGdB9C9h5MeCQ8RcIdC8a_7ibsSR2DXZI4_BgxMhtxTCAWvP8sA8f8CCdB423LPf89N6I2J26t1NApYNQlqg_pRSWOOrw_glwlIDWo8LzyZ4XP8sM6XVK6P9xzxq1Gt5Rs3tDkK2Jt9FP0raf9Ugz6jlRFLnAwBjGsLks0Ix7KkiXGv8hRpKa9O8R-nemIsS6nfAmbP9W2zayUd8Q5seLPJopLQB1stzwvqmZM5-7DfO6T69Gv5GgXYbvSij7juf32WMCvbfjwMflNV6hb8H5ZD6OQpIRfBLT9COVCKP9X0ba-Agh9Bi9WX1HeNut5AfAQUax2CwyUaA1vcojN5hdWxjCb0pf4LNXUP4IOtLyPiubStnGpb1QddFKIRjCoVFppnyrd27vx7ff_5EYuz_Lf9Fu8pudTlHoxPRIBrcWJA9g-aqXnCI1JD8kQv7vn9UnmtabbGKBIlBA-6sK3Dqn0Pr6o2ibiT0W3MIMAxbGBwXvlXzJo7cNes2wFPaIkql9OjVWJsJ467ttLfw1Z-cwP4fX1sAqCfoI2fI6QJ0eIa_2Q-NNdhkinJ0icXPtee3hmOKgni2tNzg8xX228xkXGnsNqGur-75E6wJdz0DMxWAv4myC1LgCmjSARtLywdcf6msk9VX6wbwQQ_PjhH6txf2pbFMXWIhkdo3GrYMHDk-IEyyzOcMMeJ5vAIWSFT9w0WW4vYedyUNsDxVah6SydQADjT3- -KNAPUu60LX8saogHAOdURH9X1ocJGgzyU9Rs18PuYS3BmhrRjq9beG2XYVMONBT-pgRVJvS-fSm6NkJlXJWmiZwttZT2_QbU0Fg6ulp3m00]--></g></svg>