<?xml version="1.0" encoding="us-ascii" standalone="no"?><svg xmlns="http://www.w3.org/2000/svg" xmlns:xlink="http://www.w3.org/1999/xlink" contentStyleType="text/css" height="240.8px" preserveAspectRatio="none" style="width:859px;height:240px;background:#FFFFFF;" version="1.1" viewBox="0 0 859 240" width="859.2px" zoomAndPan="magnify"><defs/><g><!--class pot.network.storage.BlocksStorage--><g id="elem_pot.network.storage.BlocksStorage"><rect codeLine="2" fill="#F1F1F1" height="64.963" id="pot.network.storage.BlocksStorage" rx="1" ry="1" style="stroke:#181818;stroke-width:0.20000000000000004;" width="108.8" x="2.8" y="53.624"/><ellipse cx="10.06" cy="60.024" fill="#ADD1B2" rx="4.4" ry="4.4" style="stroke:#181818;stroke-width:0.4000000000000001;"/><path d="M9.8475,62.7928 Q9.1475,62.7928 8.6913,62.499 Q8.2413,62.199 8.0163,61.6615 Q7.7975,61.1178 7.7975,60.399 Q7.7975,59.5865 8.06,59.0053 Q8.3225,58.424 8.835,58.1115 Q9.3475,57.799 10.0975,57.799 Q10.4538,57.799 10.7225,57.874 Q10.9913,57.9428 11.2663,58.0803 L10.9413,58.8865 Q10.6913,58.7615 10.4725,58.7115 Q10.26,58.6615 10.0663,58.6615 Q9.5975,58.6615 9.3163,58.874 Q9.035,59.0865 8.9163,59.4678 Q8.7975,59.849 8.7975,60.3553 Q8.7975,61.1615 9.085,61.549 Q9.3725,61.9303 10.01,61.9303 Q10.2475,61.9303 10.4975,61.8678 Q10.7475,61.8053 11.0788,61.6553 L11.0788,62.5428 Q10.785,62.6678 10.4663,62.7303 Q10.1538,62.7928 9.8475,62.7928 Z " fill="#000000"/><text fill="#000000" font-family="sans-serif" font-size="5.6" lengthAdjust="spacing" textLength="93.2" x="15.94" y="62.1968">pot.network.storage.BlocksStorage</text><line style="stroke:#181818;stroke-width:0.20000000000000004;" x1="3.2" x2="111.2" y1="66.424" y2="66.424"/><text fill="#000000" font-family="sans-serif" font-size="5.6" lengthAdjust="spacing" textLength="26" x="5.2" y="74.0104">PATH : str</text><line style="stroke:#181818;stroke-width:0.20000000000000004;" x1="3.2" x2="111.2" y1="77.2512" y2="77.2512"/><text fill="#000000" font-family="sans-serif" font-size="5.6" lengthAdjust="spacing" textLength="65.2" x="5.2" y="84.8375">dump(blocks: list[Block])</text><text fill="#000000" font-family="sans-serif" font-size="5.6" lengthAdjust="spacing" textLength="49.2" x="5.2" y="92.4647">load() -&gt; list[Block]</text><text fill="#000000" font-family="sans-serif" font-size="5.6" lengthAdjust="spacing" textLength="102.4" x="5.2" y="100.0919">load_from_bytes(b: bytes) -&gt; list[Block]</text><text fill="#000000" font-family="sans-serif" font-size="5.6" lengthAdjust="spacing" textLength="104" x="5.2" y="107.719">load_from_file(f: BinaryIO) -&gt; list[Block]</text><text fill="#000000" font-family="sans-serif" font-size="5.6" lengthAdjust="spacing" textLength="68.4" x="5.2" y="115.3462">update(blocks: list[Block])</text></g><!--class pot.network.storage.NodeStorage--><g id="elem_pot.network.storage.NodeStorage"><rect codeLine="10" fill="#F1F1F1" height="49.7087" id="pot.network.storage.NodeStorage" rx="1" ry="1" style="stroke:#181818;stroke-width:0.20000000000000004;" width="103.6" x="125.8" y="61.252"/><ellipse cx="131.8" cy="67.652" fill="#ADD1B2" rx="4.4" ry="4.4" style="stroke:#181818;stroke-width:0.4000000000000001;"/><path d="M131.5875,70.4208 Q130.8875,70.4208 130.4313,70.127 Q129.9813,69.827 129.7563,69.2895 Q129.5375,68.7458 129.5375,68.027 Q129.5375,67.2145 129.8,66.6333 Q130.0625,66.052 130.575,65.7395 Q131.0875,65.427 131.8375,65.427 Q132.1938,65.427 132.4625,65.502 Q132.7313,65.5708 133.0063,65.7083 L132.6813,66.5145 Q132.4313,66.3895 132.2125,66.3395 Q132,66.2895 131.8063,66.2895 Q131.3375,66.2895 131.0563,66.502 Q130.775,66.7145 130.6563,67.0958 Q130.5375,67.477 130.5375,67.9833 Q130.5375,68.7895 130.825,69.177 Q131.1125,69.5583 131.75,69.5583 Q131.9875,69.5583 132.2375,69.4958 Q132.4875,69.4333 132.8188,69.2833 L132.8188,70.1708 Q132.525,70.2958 132.2063,70.3583 Q131.8938,70.4208 131.5875,70.4208 Z " fill="#000000"/><text fill="#000000" font-family="sans-serif" font-size="5.6" lengthAdjust="spacing" textLength="90.8" x="137.4" y="69.8248">pot.network.storage.NodeStorage</text><line style="stroke:#181818;stroke-width:0.20000000000000004;" x1="126.2" x2="229" y1="74.052" y2="74.052"/><text fill="#000000" font-family="sans-serif" font-size="5.6" lengthAdjust="spacing" textLength="26" x="128.2" y="81.6384">PATH : str</text><line style="stroke:#181818;stroke-width:0.20000000000000004;" x1="126.2" x2="229" y1="84.8792" y2="84.8792"/><text fill="#000000" font-family="sans-serif" font-size="5.6" lengthAdjust="spacing" textLength="88" x="128.2" y="92.4655">dump(nodes: list[Node]) -&gt; None</text><text fill="#000000" font-family="sans-serif" font-size="5.6" lengthAdjust="spacing" textLength="49.6" x="128.2" y="100.0927">load() -&gt; list[Node]</text><text fill="#000000" font-family="sans-serif" font-size="5.6" lengthAdjust="spacing" textLength="91.2" x="128.2" y="107.7199">update(nodes: list[Node]) -&gt; None</text></g><!--class pot.network.storage.Storage--><g id="elem_pot.network.storage.Storage"><rect codeLine="16" fill="#F1F1F1" height="95.4717" id="pot.network.storage.Storage" rx="1" ry="1" style="stroke:#181818;stroke-width:0.20000000000000004;" width="106.4" x="342" y="142.588"/><ellipse cx="355.74" cy="148.988" fill="#ADD1B2" rx="4.4" ry="4.4" style="stroke:#181818;stroke-width:0.4000000000000001;"/><path d="M355.5275,151.7568 Q354.8275,151.7568 354.3713,151.463 Q353.9213,151.163 353.6963,150.6255 Q353.4775,150.0818 353.4775,149.363 Q353.4775,148.5505 353.74,147.9693 Q354.0025,147.388 354.515,147.0755 Q355.0275,146.763 355.7775,146.763 Q356.1338,146.763 356.4025,146.838 Q356.6713,146.9068 356.9463,147.0443 L356.6213,147.8505 Q356.3713,147.7255 356.1525,147.6755 Q355.94,147.6255 355.7463,147.6255 Q355.2775,147.6255 354.9963,147.838 Q354.715,148.0505 354.5963,148.4318 Q354.4775,148.813 354.4775,149.3193 Q354.4775,150.1255 354.765,150.513 Q355.0525,150.8943 355.69,150.8943 Q355.9275,150.8943 356.1775,150.8318 Q356.4275,150.7693 356.7588,150.6193 L356.7588,151.5068 Q356.465,151.6318 356.1463,151.6943 Q355.8338,151.7568 355.5275,151.7568 Z " fill="#000000"/><text fill="#000000" font-family="sans-serif" font-size="5.6" lengthAdjust="spacing" textLength="76.4" x="363.06" y="151.1608">pot.network.storage.Storage</text><line style="stroke:#181818;stroke-width:0.20000000000000004;" x1="342.4" x2="448" y1="155.388" y2="155.388"/><text fill="#000000" font-family="sans-serif" font-size="5.6" lengthAdjust="spacing" textLength="26" x="344.4" y="162.9744">PATH : str</text><text fill="#000000" font-family="sans-serif" font-size="5.6" lengthAdjust="spacing" textLength="24.4" x="344.4" y="170.6015">path : str</text><line style="stroke:#181818;stroke-width:0.20000000000000004;" x1="342.4" x2="448" y1="173.8423" y2="173.8423"/><text fill="#000000" font-family="sans-serif" font-size="5.6" lengthAdjust="spacing" textLength="40.4" x="344.4" y="181.4287">get_size() -&gt; int</text><text fill="#000000" font-family="sans-serif" font-size="5.6" lengthAdjust="spacing" textLength="46.4" x="344.4" y="189.0559">has_files() -&gt; bool</text><text fill="#000000" font-family="sans-serif" font-size="5.6" lengthAdjust="spacing" textLength="70.4" x="344.4" y="196.683">invalidate_cache() -&gt; None</text><text fill="#000000" font-family="sans-serif" font-size="5.6" lengthAdjust="spacing" textLength="46.8" x="344.4" y="204.3102">is_empty() -&gt; bool</text><text fill="#000000" font-family="sans-serif" font-size="5.6" lengthAdjust="spacing" textLength="39.2" x="344.4" y="211.9374">is_up_to_date()</text><text fill="#000000" font-family="sans-serif" font-size="5.6" lengthAdjust="spacing" textLength="43.6" x="344.4" y="219.5645">unlock() -&gt; None</text><text fill="#000000" font-family="sans-serif" font-size="5.6" lengthAdjust="spacing" textLength="40.4" x="344.4" y="227.1917">update_cache()</text><text fill="#000000" font-family="sans-serif" font-size="5.6" lengthAdjust="spacing" textLength="101.6" x="344.4" y="234.8189">wait_for_set_lock(timeout: int) -&gt; None</text></g><!--class pot.network.storage.TransactionStorage--><g id="elem_pot.network.storage.TransactionStorage"><rect codeLine="28" fill="#F1F1F1" height="49.7087" id="pot.network.storage.TransactionStorage" rx="1" ry="1" style="stroke:#181818;stroke-width:0.20000000000000004;" width="144.8" x="243.6" y="61.252"/><ellipse cx="260.4" cy="67.652" fill="#ADD1B2" rx="4.4" ry="4.4" style="stroke:#181818;stroke-width:0.4000000000000001;"/><path d="M260.1875,70.4208 Q259.4875,70.4208 259.0313,70.127 Q258.5813,69.827 258.3563,69.2895 Q258.1375,68.7458 258.1375,68.027 Q258.1375,67.2145 258.4,66.6333 Q258.6625,66.052 259.175,65.7395 Q259.6875,65.427 260.4375,65.427 Q260.7938,65.427 261.0625,65.502 Q261.3313,65.5708 261.6063,65.7083 L261.2813,66.5145 Q261.0313,66.3895 260.8125,66.3395 Q260.6,66.2895 260.4063,66.2895 Q259.9375,66.2895 259.6563,66.502 Q259.375,66.7145 259.2563,67.0958 Q259.1375,67.477 259.1375,67.9833 Q259.1375,68.7895 259.425,69.177 Q259.7125,69.5583 260.35,69.5583 Q260.5875,69.5583 260.8375,69.4958 Q261.0875,69.4333 261.4188,69.2833 L261.4188,70.1708 Q261.125,70.2958 260.8063,70.3583 Q260.4938,70.4208 260.1875,70.4208 Z " fill="#000000"/><text fill="#000000" font-family="sans-serif" font-size="5.6" lengthAdjust="spacing" textLength="108" x="268.4" y="69.8248">pot.network.storage.TransactionStorage</text><line style="stroke:#181818;stroke-width:0.20000000000000004;" x1="244" x2="388" y1="74.052" y2="74.052"/><text fill="#000000" font-family="sans-serif" font-size="5.6" lengthAdjust="spacing" textLength="26" x="246" y="81.6384">PATH : str</text><line style="stroke:#181818;stroke-width:0.20000000000000004;" x1="244" x2="388" y1="84.8792" y2="84.8792"/><text fill="#000000" font-family="sans-serif" font-size="5.6" lengthAdjust="spacing" textLength="140" x="246" y="92.4655">dump(txs: dict[UUID, TxToVerify], lock: bool) -&gt; None</text><text fill="#000000" font-family="sans-serif" font-size="5.6" lengthAdjust="spacing" textLength="82" x="246" y="100.0927">load() -&gt; dict[UUID, TxToVerify]</text><text fill="#000000" font-family="sans-serif" font-size="5.6" lengthAdjust="spacing" textLength="114.8" x="246" y="107.7199">update(txs: dict[UUID, TxToVerify]) -&gt; None</text></g><!--class pot.network.storage.TransactionVerifiedStorage--><g id="elem_pot.network.storage.TransactionVerifiedStorage"><rect codeLine="34" fill="#F1F1F1" height="49.7087" id="pot.network.storage.TransactionVerifiedStorage" rx="1" ry="1" style="stroke:#181818;stroke-width:0.20000000000000004;" width="144" x="402.4" y="61.252"/><ellipse cx="409.48" cy="67.652" fill="#ADD1B2" rx="4.4" ry="4.4" style="stroke:#181818;stroke-width:0.4000000000000001;"/><path d="M409.2675,70.4208 Q408.5675,70.4208 408.1113,70.127 Q407.6613,69.827 407.4363,69.2895 Q407.2175,68.7458 407.2175,68.027 Q407.2175,67.2145 407.48,66.6333 Q407.7425,66.052 408.255,65.7395 Q408.7675,65.427 409.5175,65.427 Q409.8738,65.427 410.1425,65.502 Q410.4113,65.5708 410.6863,65.7083 L410.3613,66.5145 Q410.1113,66.3895 409.8925,66.3395 Q409.68,66.2895 409.4863,66.2895 Q409.0175,66.2895 408.7363,66.502 Q408.455,66.7145 408.3363,67.0958 Q408.2175,67.477 408.2175,67.9833 Q408.2175,68.7895 408.505,69.177 Q408.7925,69.5583 409.43,69.5583 Q409.6675,69.5583 409.9175,69.4958 Q410.1675,69.4333 410.4988,69.2833 L410.4988,70.1708 Q410.205,70.2958 409.8863,70.3583 Q409.5738,70.4208 409.2675,70.4208 Z " fill="#000000"/><text fill="#000000" font-family="sans-serif" font-size="5.6" lengthAdjust="spacing" textLength="128.8" x="415.32" y="69.8248">pot.network.storage.TransactionVerifiedStorage</text><line style="stroke:#181818;stroke-width:0.20000000000000004;" x1="402.8" x2="546" y1="74.052" y2="74.052"/><text fill="#000000" font-family="sans-serif" font-size="5.6" lengthAdjust="spacing" textLength="26" x="404.8" y="81.6384">PATH : str</text><line style="stroke:#181818;stroke-width:0.20000000000000004;" x1="402.8" x2="546" y1="84.8792" y2="84.8792"/><text fill="#000000" font-family="sans-serif" font-size="5.6" lengthAdjust="spacing" textLength="139.2" x="404.8" y="92.4655">dump(txs: dict[UUID, TxVerified], lock: bool) -&gt; None</text><text fill="#000000" font-family="sans-serif" font-size="5.6" lengthAdjust="spacing" textLength="81.2" x="404.8" y="100.0927">load() -&gt; dict[UUID, TxVerified]</text><text fill="#000000" font-family="sans-serif" font-size="5.6" lengthAdjust="spacing" textLength="114" x="404.8" y="107.7199">update(txs: dict[UUID, TxVerified]) -&gt; None</text></g><!--class pot.network.storage.ValidatorAgreementInfoStorage--><g id="elem_pot.network.storage.ValidatorAgreementInfoStorage"><rect codeLine="40" fill="#F1F1F1" height="42.0815" id="pot.network.storage.ValidatorAgreementInfoStorage" rx="1" ry="1" style="stroke:#181818;stroke-width:0.20000000000000004;" width="154" x="560.2" y="65.068"/><ellipse cx="566.2" cy="71.468" fill="#ADD1B2" rx="4.4" ry="4.4" style="stroke:#181818;stroke-width:0.4000000000000001;"/><path d="M565.9875,74.2368 Q565.2875,74.2368 564.8313,73.943 Q564.3813,73.643 564.1563,73.1055 Q563.9375,72.5618 563.9375,71.843 Q563.9375,71.0305 564.2,70.4492 Q564.4625,69.868 564.975,69.5555 Q565.4875,69.243 566.2375,69.243 Q566.5938,69.243 566.8625,69.318 Q567.1313,69.3867 567.4063,69.5243 L567.0813,70.3305 Q566.8313,70.2055 566.6125,70.1555 Q566.4,70.1055 566.2063,70.1055 Q565.7375,70.1055 565.4563,70.318 Q565.175,70.5305 565.0563,70.9118 Q564.9375,71.293 564.9375,71.7993 Q564.9375,72.6055 565.225,72.993 Q565.5125,73.3743 566.15,73.3743 Q566.3875,73.3743 566.6375,73.3118 Q566.8875,73.2493 567.2188,73.0993 L567.2188,73.9868 Q566.925,74.1118 566.6063,74.1743 Q566.2938,74.2368 565.9875,74.2368 Z " fill="#000000"/><text fill="#000000" font-family="sans-serif" font-size="5.6" lengthAdjust="spacing" textLength="141.2" x="571.8" y="73.6408">pot.network.storage.ValidatorAgreementInfoStorage</text><line style="stroke:#181818;stroke-width:0.20000000000000004;" x1="560.6" x2="713.8" y1="77.868" y2="77.868"/><text fill="#000000" font-family="sans-serif" font-size="5.6" lengthAdjust="spacing" textLength="26" x="562.6" y="85.4544">PATH : str</text><line style="stroke:#181818;stroke-width:0.20000000000000004;" x1="560.6" x2="713.8" y1="88.6952" y2="88.6952"/><text fill="#000000" font-family="sans-serif" font-size="5.6" lengthAdjust="spacing" textLength="67.2" x="562.6" y="96.2815">dump(data: dict) -&gt; None</text><text fill="#000000" font-family="sans-serif" font-size="5.6" lengthAdjust="spacing" textLength="33.2" x="562.6" y="103.9087">load() -&gt; dict</text></g><!--class pot.network.storage.ValidatorAgreementStorage--><g id="elem_pot.network.storage.ValidatorAgreementStorage"><rect codeLine="45" fill="#F1F1F1" height="26.8272" id="pot.network.storage.ValidatorAgreementStorage" rx="1" ry="1" style="stroke:#181818;stroke-width:0.20000000000000004;" width="143.2" x="713.2" y="2.8"/><ellipse cx="719.2" cy="9.2" fill="#ADD1B2" rx="4.4" ry="4.4" style="stroke:#181818;stroke-width:0.4000000000000001;"/><path d="M718.9875,11.9688 Q718.2875,11.9688 717.8313,11.675 Q717.3813,11.375 717.1563,10.8375 Q716.9375,10.2938 716.9375,9.575 Q716.9375,8.7625 717.2,8.1813 Q717.4625,7.6 717.975,7.2875 Q718.4875,6.975 719.2375,6.975 Q719.5938,6.975 719.8625,7.05 Q720.1313,7.1188 720.4063,7.2563 L720.0813,8.0625 Q719.8313,7.9375 719.6125,7.8875 Q719.4,7.8375 719.2063,7.8375 Q718.7375,7.8375 718.4563,8.05 Q718.175,8.2625 718.0563,8.6438 Q717.9375,9.025 717.9375,9.5313 Q717.9375,10.3375 718.225,10.725 Q718.5125,11.1063 719.15,11.1063 Q719.3875,11.1063 719.6375,11.0438 Q719.8875,10.9813 720.2188,10.8313 L720.2188,11.7188 Q719.925,11.8438 719.6063,11.9063 Q719.2938,11.9688 718.9875,11.9688 Z " fill="#000000"/><text fill="#000000" font-family="sans-serif" font-size="5.6" lengthAdjust="spacing" textLength="130.4" x="724.8" y="11.3728">pot.network.storage.ValidatorAgreementStorage</text><line style="stroke:#181818;stroke-width:0.20000000000000004;" x1="713.6" x2="856" y1="15.6" y2="15.6"/><text fill="#000000" font-family="sans-serif" font-size="5.6" lengthAdjust="spacing" textLength="26" x="715.6" y="23.1864">PATH : str</text><line style="stroke:#181818;stroke-width:0.20000000000000004;" x1="713.6" x2="856" y1="26.4272" y2="26.4272"/></g><!--class pot.network.storage.ValidatorStorage--><g id="elem_pot.network.storage.ValidatorStorage"><rect codeLine="48" fill="#F1F1F1" height="49.7087" id="pot.network.storage.ValidatorStorage" rx="1" ry="1" style="stroke:#181818;stroke-width:0.20000000000000004;" width="113.2" x="728.2" y="61.252"/><ellipse cx="734.2" cy="67.652" fill="#ADD1B2" rx="4.4" ry="4.4" style="stroke:#181818;stroke-width:0.4000000000000001;"/><path d="M733.9875,70.4208 Q733.2875,70.4208 732.8313,70.127 Q732.3813,69.827 732.1563,69.2895 Q731.9375,68.7458 731.9375,68.027 Q731.9375,67.2145 732.2,66.6333 Q732.4625,66.052 732.975,65.7395 Q733.4875,65.427 734.2375,65.427 Q734.5938,65.427 734.8625,65.502 Q735.1313,65.5708 735.4063,65.7083 L735.0813,66.5145 Q734.8313,66.3895 734.6125,66.3395 Q734.4,66.2895 734.2063,66.2895 Q733.7375,66.2895 733.4563,66.502 Q733.175,66.7145 733.0563,67.0958 Q732.9375,67.477 732.9375,67.9833 Q732.9375,68.7895 733.225,69.177 Q733.5125,69.5583 734.15,69.5583 Q734.3875,69.5583 734.6375,69.4958 Q734.8875,69.4333 735.2188,69.2833 L735.2188,70.1708 Q734.925,70.2958 734.6063,70.3583 Q734.2938,70.4208 733.9875,70.4208 Z " fill="#000000"/><text fill="#000000" font-family="sans-serif" font-size="5.6" lengthAdjust="spacing" textLength="100.4" x="739.8" y="69.8248">pot.network.storage.ValidatorStorage</text><line style="stroke:#181818;stroke-width:0.20000000000000004;" x1="728.6" x2="841" y1="74.052" y2="74.052"/><text fill="#000000" font-family="sans-serif" font-size="5.6" lengthAdjust="spacing" textLength="26" x="730.6" y="81.6384">PATH : str</text><text fill="#000000" font-family="sans-serif" font-size="5.6" lengthAdjust="spacing" textLength="43.6" x="730.6" y="89.2655">SEPARATOR : str</text><line style="stroke:#181818;stroke-width:0.20000000000000004;" x1="728.6" x2="841" y1="92.5063" y2="92.5063"/><text fill="#000000" font-family="sans-serif" font-size="5.6" lengthAdjust="spacing" textLength="86.4" x="730.6" y="100.0927">dump(uuids: list[UUID]) -&gt; None</text><text fill="#000000" font-family="sans-serif" font-size="5.6" lengthAdjust="spacing" textLength="49.2" x="730.6" y="107.7199">load() -&gt; list[UUID]</text></g><!--link pot.network.storage.BlocksStorage to pot.network.storage.Storage--><g id="link_pot.network.storage.BlocksStorage_pot.network.storage.Storage"><path codeLine="54" d="M111.648,115.684 C114.044,116.708 116.436,117.68 118.8,118.588 C194.104,147.48 278.3156,167.0372 334.8156,178.4932 " fill="none" id="pot.network.storage.BlocksStorage-to-pot.network.storage.Storage" style="stroke:#181818;stroke-width:0.4000000000000001;"/><polygon fill="none" points="341.872,179.924,335.2925,176.1411,334.3387,180.8454,341.872,179.924" style="stroke:#181818;stroke-width:0.4000000000000001;"/></g><!--link pot.network.storage.NodeStorage to pot.network.storage.Storage--><g id="link_pot.network.storage.NodeStorage_pot.network.storage.Storage"><path codeLine="55" d="M221.876,111.136 C226.748,113.704 231.66,116.236 236.4,118.588 C271.12,135.824 304.304,150.8184 335.368,164.3624 " fill="none" id="pot.network.storage.NodeStorage-to-pot.network.storage.Storage" style="stroke:#181818;stroke-width:0.4000000000000001;"/><polygon fill="none" points="341.968,167.24,336.3272,162.1624,334.4088,166.5624,341.968,167.24" style="stroke:#181818;stroke-width:0.4000000000000001;"/></g><!--link pot.network.storage.TransactionStorage to pot.network.storage.Storage--><g id="link_pot.network.storage.TransactionStorage_pot.network.storage.Storage"><path codeLine="56" d="M334.868,111.148 C342.076,120.556 346.1774,125.9164 354.4694,136.7404 " fill="none" id="pot.network.storage.TransactionStorage-to-pot.network.storage.Storage" style="stroke:#181818;stroke-width:0.4000000000000001;"/><polygon fill="none" points="358.848,142.456,356.3746,135.2809,352.5642,138.1999,358.848,142.456" style="stroke:#181818;stroke-width:0.4000000000000001;"/></g><!--link pot.network.storage.TransactionVerifiedStorage to pot.network.storage.Storage--><g id="link_pot.network.storage.TransactionVerifiedStorage_pot.network.storage.Storage"><path codeLine="57" d="M455.532,111.148 C448.324,120.556 444.2226,125.9164 435.9306,136.7404 " fill="none" id="pot.network.storage.TransactionVerifiedStorage-to-pot.network.storage.Storage" style="stroke:#181818;stroke-width:0.4000000000000001;"/><polygon fill="none" points="431.552,142.456,437.8358,138.1999,434.0254,135.2809,431.552,142.456" style="stroke:#181818;stroke-width:0.4000000000000001;"/></g><!--link pot.network.storage.ValidatorAgreementInfoStorage to pot.network.storage.Storage--><g id="link_pot.network.storage.ValidatorAgreementInfoStorage_pot.network.storage.Storage"><path codeLine="58" d="M588.52,107.312 C547.976,124.636 496.9409,146.4469 455.1529,164.3029 " fill="none" id="pot.network.storage.ValidatorAgreementInfoStorage-to-pot.network.storage.Storage" style="stroke:#181818;stroke-width:0.4000000000000001;"/><polygon fill="none" points="448.532,167.132,456.0959,166.5099,454.2099,162.0959,448.532,167.132" style="stroke:#181818;stroke-width:0.4000000000000001;"/></g><!--link pot.network.storage.ValidatorAgreementStorage to pot.network.storage.ValidatorStorage--><g id="link_pot.network.storage.ValidatorAgreementStorage_pot.network.storage.ValidatorStorage"><path codeLine="59" d="M784.8,29.772 C784.8,38.62 784.8,43.356 784.8,53.928 " fill="none" id="pot.network.storage.ValidatorAgreementStorage-to-pot.network.storage.ValidatorStorage" style="stroke:#181818;stroke-width:0.4000000000000001;"/><polygon fill="none" points="784.8,61.128,787.2,53.928,782.4,53.928,784.8,61.128" style="stroke:#181818;stroke-width:0.4000000000000001;"/></g><!--link pot.network.storage.ValidatorStorage to pot.network.storage.Storage--><g id="link_pot.network.storage.ValidatorStorage_pot.network.storage.Storage"><path codeLine="60" d="M739.376,111.136 C733.364,113.884 727.2,116.456 721.2,118.588 C627.98,151.7 521.1999,171.2791 455.6799,181.3791 " fill="none" id="pot.network.storage.ValidatorStorage-to-pot.network.storage.Storage" style="stroke:#181818;stroke-width:0.4000000000000001;"/><polygon fill="none" points="448.564,182.476,456.0456,183.751,455.3143,179.0071,448.564,182.476" style="stroke:#181818;stroke-width:0.4000000000000001;"/></g><!--SRC=[hLN1JkCm4BttAonEHQBzW1oGYdQbxGKG3LnGPKsJIMkHs94zMIZi_liwJbjeIUm4zbQFtnk_UJET62GceK1JGe8BB443ASsaaZXASZ26dPMAfXBfMUcdgR6NiCRfLQwI9xDeJcSC30kYsDk8iTjP_8j5p92sXxGgol7AOIAM2qEFZh0yjtUvWdHypYQN7ozsSPvfLV3Lbj2CLn5pFxpGJEGupY9s9IJexVoc1LoLAH2sg_dhS-9QfHZouGEcmmLf4VjdQ_JIIRokk_392tV_Bjb3zGeFYUuKN09j3eSr4ZVY5HjzGfADRS0uoqqJN2cLswYGlo4NjMIUGBBPCNOb2iEnA6bxp32yAZafxkgifwAITKkEc8qB-vGsy0o2UAOqDrQQWvCeK5KKrV9wcXDha0OI4ag6VFeCxUWnlTWsfIAXn_lx-OyB5h_4wW6roBRB2rOBZLpXxPrlvxrFWIVvy98TKM0weFGJIcyBzhoX5XnuFWiEe9uMF3G3glHihH4Bb3INcGgvu6Lr667nq8ZjhdMerk4wEpJsUxVtSvrEB7xUpkvcyStTiJTL9TBzGgixwTk5xjuA3dzz9fC_bxuzDmejxYybQ5aEtyrp-a_xKZx_pFwdbC5qfoCowZL78NN_0000]--></g></svg>